<svg width="43" height="52" viewBox="0 0 43 52" fill="none" xmlns="http://www.w3.org/2000/svg">
<g clip-path="url(#clip0_61_1665)">
<path d="M21.4 51.8108C14.7763 49.2248 9.46532 45.652 5.75973 40.6917C1.90925 35.5375 0.00720215 28.8929 0.00720215 19.6435V0.879578H42.7928V19.6435C42.7928 28.8929 40.891 35.5375 37.0403 40.6917C33.3347 45.652 28.0238 49.2248 21.4 51.8108Z" fill="black"/>
<path d="M21.4 50.3423C18.4262 49.1521 15.7124 47.7582 13.3074 46.0812H29.4923C27.0876 47.7582 24.3738 49.1521 21.4 50.3423ZM7.00656 40.0332C5.73615 38.3167 4.66011 36.4035 3.80009 34.2602H38.9999C38.1399 36.4035 37.0638 38.3167 35.7934 40.0332H7.00656ZM1.95276 27.5249C1.6599 25.7677 1.47363 23.8921 1.3994 21.8892H41.4006C41.3264 23.8921 41.1403 25.7677 40.8472 27.5249H1.95276ZM22.1011 8.74803H41.4384V15.377H22.1011V8.74803ZM1.36157 2.23801H20.7427V20.536H1.36157V2.23801Z" fill="#CD3529"/>
<path d="M14.2761 19.7113C13.8065 19.5617 13.2317 18.2806 13.2541 17.6646V17.5749C12.7584 16.7329 12.2014 15.9285 11.5876 15.1683L11.5902 17.8771C11.5569 18.7892 11.3349 19.3711 10.6769 19.6875C11.2146 19.7641 12.0384 19.875 12.529 19.143C12.6643 19.461 13.5917 19.9497 14.2761 19.7113ZM15.9421 13.6729C16.1108 14.0526 16.2236 14.7163 15.1823 15.5537C16.4491 15.3872 17.0267 14.9176 17.08 14.3021C17.1795 13.1576 16.7995 13.1492 17.0622 11.6091C17.1516 11.084 17.4745 10.721 18.0447 10.262C16.8583 10.4402 16.1396 11.0274 15.7656 12.3325L13.2574 12.3242L13.2565 7.87088L14.0437 7.87017C13.9706 7.37843 13.8262 6.89667 13.5265 6.35996L12.3225 6.35949C11.716 6.35687 11.4477 6.1223 10.8608 6.33332C11.2869 6.58264 11.5947 6.91475 11.5945 7.28755L11.5952 12.4155C12.1559 12.7034 12.7402 13.1676 13.1984 13.6724L15.9421 13.6729ZM17.0156 7.86803L18.2993 7.86684C18.2993 8.5815 19.1231 10.0077 20.3517 10.0456C19.7324 9.1558 19.4857 8.53606 19.7612 7.31895C20.3716 5.72881 19.8947 4.46174 19.1776 4.28545C19.3127 4.7308 19.4024 6.0288 18.6623 6.36258L16.2778 6.36163C16.5072 7.12625 16.8443 7.74337 17.0156 7.86803ZM11.2112 17.0006C6.14224 18.8175 3.88312 16.3495 2.4952 12.6846C2.29488 12.2152 2.28489 11.8993 1.73248 11.5451C2.35198 11.3464 2.45832 10.9677 2.55515 10.577C2.89654 8.10022 4.43886 5.99811 6.84952 5.23754V6.45917C5.14186 7.31443 4.2207 9.58593 4.28589 11.7014C4.35988 14.0987 6.59949 16.5884 8.86336 16.5325C9.60943 16.5141 10.4547 16.4266 11.2134 15.8613L11.2112 17.0006ZM9.28469 4.84024C9.65415 4.81669 10.0486 4.80217 10.4713 4.7948C10.3748 5.33555 10.1863 7.431 11.0295 8.13781C10.8691 8.48253 10.4297 8.86746 10.0081 8.85771C9.72243 8.85104 9.63512 8.71925 9.48738 8.50942C9.41677 8.40889 9.34925 8.30623 9.28493 8.20157V4.84024H9.28469ZM8.89382 13.5263L8.88882 16.1361C8.68204 16.1584 8.47305 16.1485 8.26932 16.1066C8.00025 16.0543 7.61128 15.9522 7.22874 15.7131L7.22993 4.8105C7.22993 4.13985 6.72629 3.53391 5.87365 3.19395C6.70131 2.65819 8.28526 3.15375 8.54362 3.75421C9.37581 3.21988 10.3607 2.96247 11.3378 2.97246C13.2034 2.99126 15.0414 3.98426 15.7378 5.88344C16.1051 6.88573 16.2857 7.91133 17.0296 8.28936C16.8353 8.39322 16.666 8.53812 16.5333 8.71401C16.1503 9.21004 15.9093 9.96443 15.286 10.8846C15.0217 11.2737 14.7143 11.6317 14.3696 11.9516H13.6331V11.0714C14.1538 10.2285 14.4369 9.17769 14.4246 8.15399C14.4065 6.66472 13.2493 4.37847 10.5984 4.2274C9.83972 4.18434 9.18929 4.41582 8.89405 4.604V12.1546C10.4428 12.1546 11.5676 12.7046 12.4033 13.4381C13.2041 14.1406 13.7653 15.0472 14.2604 15.9796C14.9706 17.3178 15.4571 18.4866 16.3242 18.4599C16.9744 18.4288 17.2773 18.1164 17.5592 17.7086C17.848 19.0442 16.8214 19.6031 16.1858 19.6157C15.5092 19.6295 14.7048 19.0571 14.1829 18.3115C13.4044 17.1998 12.647 15.6196 11.5638 14.5805C10.3517 13.4181 9.49856 13.5246 8.89382 13.5263ZM9.0425 17.9527C9.22117 18.6755 9.57255 19.5365 10.1885 19.9216C8.59144 19.9047 8.4732 19.3511 8.24577 19.1049C7.86203 19.4886 7.27632 20.1155 6.06135 19.9954C6.74603 19.358 7.04294 18.7209 7.16046 17.9349C7.75688 18.0265 8.48629 18.0503 9.0425 17.9527Z" fill="white"/>
</g>
<defs>
<clipPath id="clip0_61_1665">
<rect width="42.7856" height="50.9353" fill="white" transform="translate(0.00720215 0.877686)"/>
</clipPath>
</defs>
</svg>
