<svg width="43" height="51" viewBox="0 0 43 51" fill="none" xmlns="http://www.w3.org/2000/svg">
<path d="M20.6353 0.100788C20.3379 0.176178 20.0112 0.318577 19.1066 0.783466C17.7999 1.45358 16.1036 2.25352 15.3581 2.55089C15.0817 2.66397 14.6294 2.85244 14.353 2.96971C13.3436 3.40109 11.438 4.07539 10.2066 4.43139C9.77945 4.55285 8.2005 4.91722 7.56808 5.03868C6.94404 5.16014 4.38505 5.59571 4.13375 5.62503C3.89503 5.65015 2.64694 5.85119 2.24906 5.92658C1.26484 6.11505 0.992604 6.21556 0.594725 6.54224C0.385315 6.70977 0.20941 7.04064 0.108893 7.45946L0 7.89084L0.0293174 9.35671C0.0544466 10.8603 0.0879522 11.7691 0.196845 14.1522C0.230351 14.9019 0.276421 15.9741 0.301551 16.5395C0.376938 18.2692 0.598913 21.0585 0.724559 21.7747C0.770629 22.0386 0.829264 22.3695 0.850205 22.5077C1.16013 24.3798 2.15274 28.2748 2.83122 30.2558C3.10765 31.0767 3.55578 32.2327 3.9746 33.2085C4.66984 34.8419 6.21529 37.5601 7.47594 39.3652C8.63607 41.0237 9.33131 41.9493 9.95954 42.6739C10.6087 43.4194 11.9154 44.7596 12.5311 45.3082C15.5424 47.9929 16.0827 48.4368 17.0921 49.0651C17.381 49.2451 17.9046 49.576 18.248 49.798C19.1526 50.3801 19.7976 50.6901 20.451 50.8618L20.9871 51L21.4394 50.8827C21.9085 50.7655 22.9974 50.3089 23.3744 50.0744C24.4088 49.4336 25.4685 48.7509 25.7491 48.5499C26.2014 48.2274 27.1647 47.44 28.0693 46.6526C28.4714 46.3008 28.974 45.8695 29.1792 45.6977C29.9163 45.0737 31.579 43.3817 32.5339 42.276C33.2836 41.409 35.2772 38.6113 35.9515 37.4805C36.8855 35.9099 37.5388 34.7582 37.7985 34.2137C38.3765 32.9991 38.8372 31.8515 39.6413 29.6486C40.035 28.5638 40.5292 26.6624 41.1784 23.7432C41.6391 21.6491 41.7689 20.602 41.9742 17.1887C41.9951 16.795 42.037 16.1919 42.0579 15.8484C42.0789 15.5008 42.1375 14.3826 42.1836 13.3564C42.2296 12.3303 42.2883 11.1074 42.3092 10.6341C42.3343 10.1608 42.3511 9.34415 42.3511 8.82063C42.3511 7.99555 42.3385 7.81546 42.2631 7.52228C42.1542 7.08671 41.9616 6.79353 41.6223 6.55481C41.3836 6.38309 41.3124 6.36215 40.5083 6.18206C39.256 5.90145 39.0466 5.85957 37.3462 5.58733C33.4051 4.95073 30.955 4.2513 27.5667 2.78962C25.9627 2.09856 23.4079 0.867229 22.5744 0.385586C22.2184 0.180363 21.5525 -0.00810623 21.2091 0.000270844C21.1002 0.00445938 20.8447 0.0463409 20.6353 0.100788Z" fill="#CDCDCD"/>
</svg>
