<svg id="Layer_1" data-name="Layer 1" xmlns="http://www.w3.org/2000/svg" viewBox="0 0 60.12 40"><path d="M429.76,312.5h-2.62a1.76,1.76,0,0,0-.38-.91,2,2,0,0,0-1.42-.43,2.09,2.09,0,0,0-1.36.33.84.84,0,0,0-.29.67q0,.58,1.65,1a26.44,26.44,0,0,1,2.69.69,3.62,3.62,0,0,1,.36.15,2.52,2.52,0,0,1,1.67,2.39,3,3,0,0,1-1.62,2.84,3.11,3.11,0,0,1-.41.2,6.07,6.07,0,0,1-2.42.46,6.63,6.63,0,0,1-3.31-.73,3.09,3.09,0,0,1-1.19-1.16,3.28,3.28,0,0,1-.4-1.63h2.75a1.3,1.3,0,0,0,.51,1.09,2.86,2.86,0,0,0,1.71.4,2.08,2.08,0,0,0,1.36-.38.87.87,0,0,0,.34-.67c0-.42-.54-.76-1.62-1a18.09,18.09,0,0,1-3-.83,2.51,2.51,0,0,1-1.64-2.41,3.17,3.17,0,0,1,.86-2.26,4.26,4.26,0,0,1,3.24-1.14,6.84,6.84,0,0,1,2.85.5l.17.09a2.82,2.82,0,0,1,1.17,1.12A3.3,3.3,0,0,1,429.76,312.5Z" transform="translate(-369.94 -280)"/><path d="M428.36,306.1a.21.21,0,0,0,0-.14.23.23,0,0,0-.12-.09l-.17,0h-.41v.51H428a.47.47,0,0,0,.25-.07A.25.25,0,0,0,428.36,306.1Zm.22-.28a.46.46,0,0,1,.08.25.43.43,0,0,1-.14.32.5.5,0,0,1-.35.16.38.38,0,0,1,.14.09l.26.33.19.34h-.32l-.16-.27a1.35,1.35,0,0,0-.25-.36l0,0-.22-.06h-.16v.72h-.28v-1.7H428a1.28,1.28,0,0,1,.33,0A.44.44,0,0,1,428.58,305.82Z" transform="translate(-369.94 -280)"/><path d="M429.34,306.44a1.3,1.3,0,0,0-.66-1.15,1.33,1.33,0,0,0-.64-.17h0a1.36,1.36,0,0,0-.64.17,1.3,1.3,0,0,0-.49,1.8,1.23,1.23,0,0,0,.48.48,1.29,1.29,0,0,0,.65.17h0a1.26,1.26,0,0,0,.65-.17,1.23,1.23,0,0,0,.48-.48A1.26,1.26,0,0,0,429.34,306.44Zm.27,0a1.6,1.6,0,0,1-.21.78,1.47,1.47,0,0,1-.58.58,1.58,1.58,0,0,1-.78.21h0a1.6,1.6,0,0,1-.78-.21,1.39,1.39,0,0,1-.57-.58,1.5,1.5,0,0,1-.21-.78,1.55,1.55,0,0,1,.21-.8,1.39,1.39,0,0,1,.58-.57,1.71,1.71,0,0,1,.77-.21h0a1.57,1.57,0,0,1,.77.21,1.41,1.41,0,0,1,.59.57A1.65,1.65,0,0,1,429.61,306.44Z" transform="translate(-369.94 -280)"/><polygon points="44.28 13.66 51.7 26.03 44.28 26.03 39.77 26.03 32.68 14.21 27.31 5.26 32.68 2.04 36.06 0 44.28 13.66"/><path d="M419.61,314.63v5.07h-2.47v-.56a5.3,5.3,0,0,1-2.89.86h0a5.38,5.38,0,0,1,0-10.75h0a5.3,5.3,0,0,1,2.89.86v-.59h2.47Zm-2.47.56v-1.12a3,3,0,0,0-2.89-2.39h0a3,3,0,0,0,0,5.9h0A3,3,0,0,0,417.14,315.19Z" transform="translate(-369.94 -280)"/><path d="M408,314.63v5.07h-2.47v-.56a5.3,5.3,0,0,1-2.89.86h0a5.38,5.38,0,0,1,0-10.75h0a5.3,5.3,0,0,1,2.89.86V306H408Zm-2.47.56v-1.12a3,3,0,0,0-2.89-2.39h0a3,3,0,0,0,0,5.9h0A3,3,0,0,0,405.54,315.19Z" transform="translate(-369.94 -280)"/><polygon points="32.68 21.17 35.59 26.03 32.68 26.03 23.67 26.03 17.05 15.02 16.76 14.54 17.05 14.37 25.53 9.26 32.68 21.17"/><rect x="23.68" y="29.25" width="2.69" height="10.45"/><rect x="23.68" y="26.09" width="2.69" height="2.36"/><path d="M392.39,314.63v5.07h-2.47v-.56a5.34,5.34,0,0,1-2.9.86h0a5.38,5.38,0,0,1,0-10.75h0a5.34,5.34,0,0,1,2.9.86V306h2.47Zm-2.47.56v-1.12a3,3,0,0,0-2.9-2.39h0a3,3,0,0,0,0,5.9h0A3,3,0,0,0,389.92,315.19Z" transform="translate(-369.94 -280)"/><polygon points="17.05 21.96 19.49 26.03 17.05 26.03 7.56 26.03 6.22 23.8 14.99 18.54 17.05 21.96"/><path d="M380.68,314.63v5.07h-2.47v-.56a5.36,5.36,0,0,1-2.9.86h0a5.38,5.38,0,0,1,0-10.75h0a5.36,5.36,0,0,1,2.9.86v-.59h2.47Zm-2.47.56v-1.12a3,3,0,0,0-2.9-2.39h0a3,3,0,0,0,0,5.9h0A3,3,0,0,0,378.21,315.19Z" transform="translate(-369.94 -280)"/></svg>