<svg id="svg1015" xmlns="http://www.w3.org/2000/svg" viewBox="0 0 1440.74 609.24"><defs><style>.cls-1,.cls-2{fill:#212121;}.cls-1{fill-rule:evenodd;}</style></defs><g id="g48"><path id="path50" class="cls-1" d="M1026.67,980.86c40.48-21.57,66.07-62.1,66.07-108.14,0-26.85-8.67-49.7-25.07-66.11-18.91-19.59-41.83-26.9-84.49-26.9H843.29l-1.37,8.71-54.55,346.12c-4,25.31-.66,69.84,55,70.09v0h96.12c81.82,0,139-56.9,139-138.35,0-39.57-19.2-70.59-50.77-85.44m-49.93,147.38c-15.17,10.46-25.15,13.5-62.15,13.5h-57.2l18.87-122.1h60.39c58.36,0,66.23,25.75,66.23,50.94s-9.53,46.24-26.14,57.66M940.31,953.07H886.85l17.54-110.48h60.44c34.82,0,40.83,3.2,46.2,10.51,4.64,6.5,6.56,13.64,6.56,24.51,0,45.14-31.06,75.46-77.28,75.46" transform="translate(-271.76 -779.6)"/></g><g id="g52"><path id="path54" class="cls-1" d="M1299,1022c60.7-11.65,107.9-70.2,107.9-137.62S1364.78,779.7,1288.21,779.7H1155.62l-1.37,8.71-56,359.58c-2.52,18.4-16.42,56.67,50.38,56.63l6.48,0h4.66l1.37-8.74,25.61-164.64h38.61l81.72,167.57,2.83,5.81h80.74l-7.5-15Zm-102.29-53.6,20-125.78h56.75c52.4,0,62,14.07,62,41.76,0,50.26-34.27,84-85.27,84Z" transform="translate(-271.76 -779.6)"/></g><g id="g56"><path id="path58" class="cls-1" d="M1646.42,980.86c40.48-21.57,66.08-62.1,66.08-108.14,0-26.85-8.66-49.69-25.07-66.11-18.91-19.59-41.84-26.9-84.49-26.9H1463l-1.36,8.71-54.43,345.38c-3.59,25.08-1.29,70.58,54.91,70.83v0h96.08c81.83,0,139-56.9,139-138.35,0-39.57-19.2-70.59-50.77-85.44m-49.93,147.39c-15.15,10.45-25.15,13.49-62.15,13.49h-57.19l18.85-122.1h60.39c58.4,0,66.26,25.75,66.26,50.94s-9.55,46.24-26.16,57.67m-36.43-175.18H1506.6l17.54-110.48h60.43c34.84,0,40.83,3.2,46.22,10.51,4.64,6.5,6.56,13.64,6.56,24.51,0,45.14-31,75.46-77.29,75.46" transform="translate(-271.76 -779.6)"/></g><g id="g120"><path id="path122" class="cls-1" d="M326.33,779.62l-6.14,39.29A432.18,432.18,0,0,1,544.74,942.19l89.67-58.88s10.35-7,15.16-1.15c0,0,4.69,4.53-4.33,14.24l-73.63,76.38a430.43,430.43,0,0,1,93.17,231.86h42l66.49-425Z" transform="translate(-271.76 -779.6)"/></g><g id="g124"><path id="path126" class="cls-1" d="M412.19,1082.37l-4.11-5L504,969.68a383.8,383.8,0,0,0-191.26-103l-39.07,249.8c-6.83,46.84,1.7,88.16,79.77,88.16H616.28a382.44,382.44,0,0,0-78.55-197Z" transform="translate(-271.76 -779.6)"/></g><path class="cls-2" d="M419.78,1316.6l-8.28,21.27h19.64l-4.54,25H401.76L392,1387.7H366l9.74-24.83H348.84l-9.74,24.83h-26l9.74-24.83h-24l4.54-25H332.6l8.28-21.27H317.51l4.38-25h28.73l9.42-24h26l-9.41,24h26.94l9.42-24h26l-9.41,24h20.13l-4.38,25Zm-26,0H366.86l-8.28,21.27h26.94Z" transform="translate(-271.76 -779.6)"/><path class="cls-2" d="M550,1387.7H522.21l-33.93-70.29-12.5,70.29H448l20.13-114h27.76l33.93,70.62,12.5-70.62H570.1Z" transform="translate(-271.76 -779.6)"/><path class="cls-2" d="M644.61,1367.57H602.08l-10.39,20.13H562.63l61.37-114h32.14l21.1,114H647.86Zm-3.24-21.1-6.66-42.21L613,1346.47Z" transform="translate(-271.76 -779.6)"/><path class="cls-2" d="M707.84,1300.45a68,68,0,0,1,23.95-20.62,66.2,66.2,0,0,1,30.84-7.39q20.29,0,32.88,10.72t14.2,29.22H779.19a18.65,18.65,0,0,0-7.71-10.63,24.54,24.54,0,0,0-13.72-3.66,31.4,31.4,0,0,0-22.24,8.85q-9.42,8.85-12,23.62a46.08,46.08,0,0,0-.81,8q0,11.37,6.33,18t17.37,6.66a30.71,30.71,0,0,0,14.85-3.73,32.68,32.68,0,0,0,11.61-10.72h30.52a65,65,0,0,1-24.51,29.14,66,66,0,0,1-36.69,10.63q-14.61,0-25.49-5.68A39.89,39.89,0,0,1,700,1366.76q-5.85-10.38-5.84-24.19a62.62,62.62,0,0,1,1.13-12A70.82,70.82,0,0,1,707.84,1300.45Z" transform="translate(-271.76 -779.6)"/><path class="cls-2" d="M888,1367.57H845.42L835,1387.7H806l61.36-114h32.14l21.1,114H891.2Zm-3.25-21.1-6.66-42.21-21.75,42.21Z" transform="translate(-271.76 -779.6)"/><path class="cls-2" d="M961.9,1382.83a42,42,0,0,1-17-16.88,50.78,50.78,0,0,1-6-25q0-20,8.6-35.63a61.85,61.85,0,0,1,24-24.43q15.35-8.78,34.82-8.77,14.61,0,25.65,5.92a41.61,41.61,0,0,1,17,16.73,50,50,0,0,1,6,24.75q0,20-8.6,35.8a62.07,62.07,0,0,1-24,24.67q-15.42,8.85-35.06,8.85Q972.85,1388.84,961.9,1382.83Zm48.46-25.16a36.76,36.76,0,0,0,12.58-14.85,46.34,46.34,0,0,0,4.46-20.21q0-11.7-6.49-18.35t-18.18-6.65a33,33,0,0,0-18.91,5.52,36.7,36.7,0,0,0-12.67,14.69,45.62,45.62,0,0,0-4.46,20.21q0,11.68,6.49,18.42t18.35,6.74A32.68,32.68,0,0,0,1010.36,1357.67Z" transform="translate(-271.76 -779.6)"/><path class="cls-2" d="M1155.65,1320a34.69,34.69,0,0,1-15.59,9.25,21.3,21.3,0,0,1,12.83,8,23.1,23.1,0,0,1,4.71,14.44,26,26,0,0,1-.49,5,34,34,0,0,1-14,22.64q-11.54,8.37-29.38,8.36h-53.09l20.13-114h51.3q15.42,0,23.86,6.33t8.45,17.54a35.07,35.07,0,0,1-.49,5.68A31.06,31.06,0,0,1,1155.65,1320Zm-25.81,30a8.89,8.89,0,0,0-3.41-7.39c-2.27-1.78-5.42-2.67-9.42-2.67h-20.13l-4.54,25.64h20.45q7.14,0,11.37-3.24a14.73,14.73,0,0,0,5.35-9.42A19.22,19.22,0,0,0,1129.84,1350Zm-.17-33.12a13.2,13.2,0,0,0,5.2-8.92,16.39,16.39,0,0,0,.16-2.6,8.82,8.82,0,0,0-3.08-7.23q-3.09-2.51-9.09-2.51h-18.19l-4.22,24.35h18Q1125.44,1320,1129.67,1316.92Z" transform="translate(-271.76 -779.6)"/><path class="cls-2" d="M1261.33,1281.78q9.26,8,9.25,20.86a35.76,35.76,0,0,1-.65,7,40.23,40.23,0,0,1-9.9,20.29q-8,8.92-21.27,12.66l18.35,45.13h-31.33l-16.07-43h-6.66l-7.63,43h-27.76l20.13-114h46.59Q1252.08,1273.74,1261.33,1281.78Zm-19.48,25.57a10,10,0,0,0-3.33-8q-3.33-2.83-9.82-2.84h-17.21l-5,28.57h17.21q7.62,0,12.09-3.73a17.43,17.43,0,0,0,5.76-10.55C1241.74,1309,1241.85,1307.89,1241.85,1307.35Z" transform="translate(-271.76 -779.6)"/><path class="cls-2" d="M1368.47,1320a34.66,34.66,0,0,1-15.58,9.25,21.27,21.27,0,0,1,12.82,8,23.1,23.1,0,0,1,4.71,14.44,25.27,25.27,0,0,1-.49,5,34,34,0,0,1-14,22.64q-11.52,8.37-29.38,8.36H1273.5l20.13-114h51.3q15.42,0,23.86,6.33t8.45,17.54a35.07,35.07,0,0,1-.49,5.68A31.06,31.06,0,0,1,1368.47,1320Zm-25.81,30a8.89,8.89,0,0,0-3.41-7.39q-3.4-2.67-9.42-2.67h-20.12l-4.55,25.64h20.45c4.77,0,8.55-1.08,11.37-3.24a14.69,14.69,0,0,0,5.35-9.42A19.22,19.22,0,0,0,1342.66,1350Zm-.16-33.12a13.22,13.22,0,0,0,5.19-8.92,16.39,16.39,0,0,0,.16-2.6,8.82,8.82,0,0,0-3.08-7.23q-3.09-2.51-9.09-2.51H1317.5l-4.22,24.35h18Q1338.28,1320,1342.5,1316.92Z" transform="translate(-271.76 -779.6)"/><path class="cls-2" d="M1474.8,1273.74l-3.9,21.92h-46.42l-4.22,24.51H1455l-3.9,21.1h-34.74l-8.12,46.43h-27.76l20.13-114Z" transform="translate(-271.76 -779.6)"/><path class="cls-2" d="M1500.77,1366.6h36.37l-3.74,21.1h-64.12l20.13-114h27.76Z" transform="translate(-271.76 -779.6)"/><path class="cls-2" d="M1621.23,1367.57h-42.54l-10.39,20.13h-29l61.36-114h32.14l21.11,114h-29.39Zm-3.25-21.1-6.66-42.21-21.75,42.21Z" transform="translate(-271.76 -779.6)"/></svg>