<svg id="Camada_1" data-name="Camada 1" xmlns="http://www.w3.org/2000/svg" viewBox="0 0 64.16 40"><defs><style>.cls-1,.cls-2{fill:#202020;fill-rule:evenodd;}.cls-2{stroke:#fff;stroke-miterlimit:22.93;}</style></defs><path class="cls-1" d="M794.27,517.8s13.63,4.7,17.46-7.46c2.08,2.28,4.53,4.69,3.84,8-1.83,8.89-14.39,6.91-18.76,3.16a14.86,14.86,0,0,1-2.54-3.71Z" transform="translate(-775.51 -499.75)"/><path class="cls-1" d="M809.13,499.79c0-.18-2.92.19-4.51,3.89,0,0-5,13,8.24,19.22,0,0,6.61-4.86-.58-12-4-4-4-8.12-3.15-11.12Z" transform="translate(-775.51 -499.75)"/><path class="cls-2" d="M806.08,517.4a16.22,16.22,0,0,0,6.74,5.48,6.75,6.75,0,0,0,1.43-9.59,30.87,30.87,0,0,0-2.52-2.95,11.15,11.15,0,0,1-5.65,7.06Z" transform="translate(-775.51 -499.75)"/><path class="cls-1" d="M800.42,518.71a15.34,15.34,0,0,0,4.22,5.83,15.45,15.45,0,0,1-7.81-3,17.64,17.64,0,0,1-1.79-2.33q-.24-.6-.45-1.26a20.15,20.15,0,0,0,5.83.8Z" transform="translate(-775.51 -499.75)"/><path class="cls-1" d="M800.38,518.71a15.27,15.27,0,0,0,4.18,5.82,15.45,15.45,0,0,1-7.73-3,17.89,17.89,0,0,1-1.84-2.41c-.15-.38-.29-.78-.42-1.19a20,20,0,0,0,5.81.81Z" transform="translate(-775.51 -499.75)"/><path class="cls-1" d="M800.33,518.71a15.24,15.24,0,0,0,4.15,5.81,15.37,15.37,0,0,1-7.65-3,17,17,0,0,1-1.89-2.49q-.21-.54-.39-1.11a20.25,20.25,0,0,0,5.78.81Z" transform="translate(-775.51 -499.75)"/><path class="cls-1" d="M800.28,518.71a15.4,15.4,0,0,0,4.11,5.8,15.28,15.28,0,0,1-7.56-3,17.66,17.66,0,0,1-2-2.58c-.12-.33-.24-.68-.35-1a20,20,0,0,0,5.75.82Z" transform="translate(-775.51 -499.75)"/><path class="cls-1" d="M800.23,518.71a15.45,15.45,0,0,0,4.08,5.79,15.23,15.23,0,0,1-7.48-3,16.9,16.9,0,0,1-2-2.67c-.11-.31-.22-.62-.32-.94a20.17,20.17,0,0,0,5.72.82Z" transform="translate(-775.51 -499.75)"/><path class="cls-1" d="M800.18,518.71a15.55,15.55,0,0,0,4.05,5.78,15.25,15.25,0,0,1-7.4-3,16.45,16.45,0,0,1-2.05-2.76c-.1-.28-.2-.57-.29-.86a20.32,20.32,0,0,0,5.69.83Z" transform="translate(-775.51 -499.75)"/><path class="cls-1" d="M800.13,518.71a15.49,15.49,0,0,0,4,5.76,15.1,15.1,0,0,1-7.32-3,16.23,16.23,0,0,1-2.11-2.86c-.09-.25-.17-.51-.26-.77a19.71,19.71,0,0,0,5.67.84Z" transform="translate(-775.51 -499.75)"/><path class="cls-1" d="M800.08,518.71a15.67,15.67,0,0,0,4,5.75,15,15,0,0,1-7.24-3,16,16,0,0,1-2.16-3c-.08-.22-.15-.45-.23-.67a20.21,20.21,0,0,0,5.64.84Z" transform="translate(-775.51 -499.75)"/><path class="cls-1" d="M800,518.71a15.86,15.86,0,0,0,4,5.74,15.08,15.08,0,0,1-7.16-3,15.47,15.47,0,0,1-2.21-3.06c-.07-.19-.13-.38-.2-.58a20.11,20.11,0,0,0,5.61.85Z" transform="translate(-775.51 -499.75)"/><path class="cls-1" d="M800,518.71a15.55,15.55,0,0,0,3.92,5.73,15.06,15.06,0,0,1-7.08-2.94,15.63,15.63,0,0,1-2.27-3.17c0-.16-.11-.32-.16-.48a20,20,0,0,0,5.59.86Z" transform="translate(-775.51 -499.75)"/><path class="cls-1" d="M799.94,518.71a15.62,15.62,0,0,0,3.89,5.71,14.92,14.92,0,0,1-7-2.92,15.09,15.09,0,0,1-2.33-3.28l-.12-.37a20.27,20.27,0,0,0,5.56.86Z" transform="translate(-775.51 -499.75)"/><path class="cls-1" d="M799.89,518.71a15.9,15.9,0,0,0,3.85,5.7,10.59,10.59,0,0,1-9.3-6.31,2.58,2.58,0,0,0-.08-.26,20.28,20.28,0,0,0,5.53.87Z" transform="translate(-775.51 -499.75)"/><path class="cls-1" d="M799.84,518.71a15.89,15.89,0,0,0,3.82,5.69,14.87,14.87,0,0,1-6.83-2.9,15.26,15.26,0,0,1-2.45-3.52c0-.05,0-.1,0-.15a19.31,19.31,0,0,0,5.5.88Z" transform="translate(-775.51 -499.75)"/><path class="cls-1" d="M799.79,518.71a15.93,15.93,0,0,0,3.79,5.67,10.58,10.58,0,0,1-9.26-6.53v0a19.57,19.57,0,0,0,5.47.89Z" transform="translate(-775.51 -499.75)"/><path class="cls-1" d="M799.74,518.71a16,16,0,0,0,3.76,5.66,14.77,14.77,0,0,1-6.67-2.87,14.44,14.44,0,0,1-2.52-3.68,20,20,0,0,0,5.43.89Z" transform="translate(-775.51 -499.75)"/><path class="cls-1" d="M799.69,518.7a16,16,0,0,0,3.73,5.65,14.74,14.74,0,0,1-6.59-2.85,14.44,14.44,0,0,1-2.52-3.68,19.33,19.33,0,0,0,5.38.88Z" transform="translate(-775.51 -499.75)"/><path class="cls-1" d="M799.64,518.7a16.24,16.24,0,0,0,3.69,5.63,10.48,10.48,0,0,1-9-6.51,19.35,19.35,0,0,0,5.33.88Z" transform="translate(-775.51 -499.75)"/><path class="cls-1" d="M799.59,518.7a16.32,16.32,0,0,0,3.66,5.62,10.46,10.46,0,0,1-8.94-6.5,19.47,19.47,0,0,0,5.28.88Z" transform="translate(-775.51 -499.75)"/><path class="cls-1" d="M799.54,518.7a16.19,16.19,0,0,0,3.63,5.6,10.42,10.42,0,0,1-8.86-6.48,19.5,19.5,0,0,0,5.23.88Z" transform="translate(-775.51 -499.75)"/><path class="cls-1" d="M799.49,518.7a16.52,16.52,0,0,0,3.6,5.59,10.41,10.41,0,0,1-8.78-6.47,19.64,19.64,0,0,0,5.18.88Z" transform="translate(-775.51 -499.75)"/><path class="cls-1" d="M799.44,518.7a16.75,16.75,0,0,0,3.56,5.57,10.38,10.38,0,0,1-8.69-6.45,19.68,19.68,0,0,0,5.13.88Z" transform="translate(-775.51 -499.75)"/><path class="cls-1" d="M799.4,518.7a16.46,16.46,0,0,0,3.52,5.55,10.34,10.34,0,0,1-8.61-6.43,19.87,19.87,0,0,0,5.09.88Z" transform="translate(-775.51 -499.75)"/><path class="cls-1" d="M799.35,518.69a16.51,16.51,0,0,0,3.49,5.54,10.31,10.31,0,0,1-8.53-6.41,19.67,19.67,0,0,0,5,.87Z" transform="translate(-775.51 -499.75)"/><path class="cls-1" d="M799.3,518.69a16.48,16.48,0,0,0,3.46,5.52,14.13,14.13,0,0,1-5.93-2.71,14.44,14.44,0,0,1-2.52-3.68,19.33,19.33,0,0,0,5,.87Z" transform="translate(-775.51 -499.75)"/><path class="cls-1" d="M799.25,518.69a16.7,16.7,0,0,0,3.42,5.51,14.28,14.28,0,0,1-5.84-2.7,14.44,14.44,0,0,1-2.52-3.68,19.37,19.37,0,0,0,4.94.87Z" transform="translate(-775.51 -499.75)"/><path class="cls-1" d="M799.2,518.69a17,17,0,0,0,3.39,5.49,14.09,14.09,0,0,1-5.76-2.68,14.44,14.44,0,0,1-2.52-3.68,19.55,19.55,0,0,0,4.89.87Z" transform="translate(-775.51 -499.75)"/><path class="cls-1" d="M799.15,518.68a16.78,16.78,0,0,0,3.36,5.48,14.23,14.23,0,0,1-5.68-2.66,14.44,14.44,0,0,1-2.52-3.68,19.35,19.35,0,0,0,4.84.86Z" transform="translate(-775.51 -499.75)"/><path class="cls-1" d="M799.1,518.68a16.93,16.93,0,0,0,3.33,5.46,14,14,0,0,1-5.6-2.64,14.44,14.44,0,0,1-2.52-3.68,19.55,19.55,0,0,0,4.79.86Z" transform="translate(-775.51 -499.75)"/><path class="cls-1" d="M799.05,518.68a17.19,17.19,0,0,0,3.3,5.44,13.92,13.92,0,0,1-5.52-2.62,14.44,14.44,0,0,1-2.52-3.68,19.62,19.62,0,0,0,4.74.86Z" transform="translate(-775.51 -499.75)"/><path class="cls-1" d="M799,518.68a17.09,17.09,0,0,0,3.26,5.41,13.88,13.88,0,0,1-5.43-2.59,14.44,14.44,0,0,1-2.52-3.68,19.84,19.84,0,0,0,4.69.86Z" transform="translate(-775.51 -499.75)"/><path class="cls-1" d="M799,518.67a17.29,17.29,0,0,0,3.23,5.4,13.7,13.7,0,0,1-5.35-2.57,14.44,14.44,0,0,1-2.52-3.68,19.05,19.05,0,0,0,4.64.85Z" transform="translate(-775.51 -499.75)"/><path class="cls-1" d="M798.9,518.67a17.27,17.27,0,0,0,3.2,5.38,13.58,13.58,0,0,1-5.27-2.55,14.44,14.44,0,0,1-2.52-3.68,19.26,19.26,0,0,0,4.59.85Z" transform="translate(-775.51 -499.75)"/><path class="cls-1" d="M798.85,518.67A17.37,17.37,0,0,0,802,524a13.68,13.68,0,0,1-5.19-2.53,14.44,14.44,0,0,1-2.52-3.68,19.35,19.35,0,0,0,4.54.85Z" transform="translate(-775.51 -499.75)"/><path class="cls-1" d="M798.8,518.66a17.75,17.75,0,0,0,3.13,5.35,13.59,13.59,0,0,1-5.1-2.51,14.44,14.44,0,0,1-2.52-3.68,19.3,19.3,0,0,0,4.49.84Z" transform="translate(-775.51 -499.75)"/><path class="cls-1" d="M798.75,518.66a17.7,17.7,0,0,0,3.1,5.32,13.55,13.55,0,0,1-5-2.48,14.44,14.44,0,0,1-2.52-3.68,19.4,19.4,0,0,0,4.44.84Z" transform="translate(-775.51 -499.75)"/><path class="cls-1" d="M798.7,518.66a17.82,17.82,0,0,0,3.07,5.3,13.36,13.36,0,0,1-4.94-2.46,14.44,14.44,0,0,1-2.52-3.68,19.66,19.66,0,0,0,4.39.84Z" transform="translate(-775.51 -499.75)"/><path class="cls-1" d="M798.65,518.65a17.85,17.85,0,0,0,3,5.29,13.34,13.34,0,0,1-4.86-2.44,14.44,14.44,0,0,1-2.52-3.68,19.63,19.63,0,0,0,4.34.83Z" transform="translate(-775.51 -499.75)"/><path class="cls-1" d="M798.6,518.65a18.11,18.11,0,0,0,3,5.26,13.33,13.33,0,0,1-4.77-2.41,14.44,14.44,0,0,1-2.52-3.68,19.07,19.07,0,0,0,4.29.83Z" transform="translate(-775.51 -499.75)"/><path class="cls-1" d="M798.55,518.64a18.15,18.15,0,0,0,3,5.25,13.15,13.15,0,0,1-4.69-2.39,14.44,14.44,0,0,1-2.52-3.68,19,19,0,0,0,4.24.82Z" transform="translate(-775.51 -499.75)"/><path class="cls-1" d="M798.5,518.64a18.35,18.35,0,0,0,2.94,5.22,13,13,0,0,1-4.61-2.36,14.44,14.44,0,0,1-2.52-3.68,19.15,19.15,0,0,0,4.19.82Z" transform="translate(-775.51 -499.75)"/><path class="cls-1" d="M798.45,518.64a18.24,18.24,0,0,0,2.91,5.2,13,13,0,0,1-4.53-2.34,14.44,14.44,0,0,1-2.52-3.68,19.47,19.47,0,0,0,4.14.82Z" transform="translate(-775.51 -499.75)"/><path class="cls-1" d="M798.4,518.63a18.36,18.36,0,0,0,2.88,5.18,12.93,12.93,0,0,1-4.45-2.31,14.44,14.44,0,0,1-2.52-3.68,19.27,19.27,0,0,0,4.09.81Z" transform="translate(-775.51 -499.75)"/><path class="cls-1" d="M798.35,518.63a18.59,18.59,0,0,0,2.84,5.16,13.06,13.06,0,0,1-4.36-2.29,14.44,14.44,0,0,1-2.52-3.68,19.62,19.62,0,0,0,4,.81Z" transform="translate(-775.51 -499.75)"/><path class="cls-1" d="M798.3,518.62a18.73,18.73,0,0,0,2.81,5.14,12.87,12.87,0,0,1-4.28-2.26,14.44,14.44,0,0,1-2.52-3.68,18.84,18.84,0,0,0,4,.8Z" transform="translate(-775.51 -499.75)"/><path class="cls-1" d="M798.25,518.62a18.71,18.71,0,0,0,2.78,5.11,12.78,12.78,0,0,1-4.2-2.23,14.44,14.44,0,0,1-2.52-3.68,19,19,0,0,0,3.94.8Z" transform="translate(-775.51 -499.75)"/><path class="cls-1" d="M798.2,518.61a18.77,18.77,0,0,0,2.75,5.1,12.79,12.79,0,0,1-4.12-2.21,14.44,14.44,0,0,1-2.52-3.68,19,19,0,0,0,3.89.79Z" transform="translate(-775.51 -499.75)"/><path class="cls-1" d="M798.15,518.61a19.34,19.34,0,0,0,2.72,5.07,12.52,12.52,0,0,1-4-2.18,14.44,14.44,0,0,1-2.52-3.68,19.39,19.39,0,0,0,3.84.79Z" transform="translate(-775.51 -499.75)"/><path class="cls-1" d="M798.1,518.6a19.22,19.22,0,0,0,2.69,5,12.65,12.65,0,0,1-4-2.15,14.44,14.44,0,0,1-2.52-3.68,19.19,19.19,0,0,0,3.79.78Z" transform="translate(-775.51 -499.75)"/><path class="cls-1" d="M798.05,518.6a19.21,19.21,0,0,0,2.66,5,12.26,12.26,0,0,1-3.88-2.12,14.44,14.44,0,0,1-2.52-3.68,18.74,18.74,0,0,0,3.74.78Z" transform="translate(-775.51 -499.75)"/><path class="cls-1" d="M798,518.59a19.5,19.5,0,0,0,2.62,5,12.34,12.34,0,0,1-3.79-2.09,14.44,14.44,0,0,1-2.52-3.68,18.54,18.54,0,0,0,3.69.77Z" transform="translate(-775.51 -499.75)"/><path class="cls-1" d="M798,518.58a19.54,19.54,0,0,0,2.59,5,12.4,12.4,0,0,1-3.71-2.06,14.44,14.44,0,0,1-2.52-3.68,18.57,18.57,0,0,0,3.64.76Z" transform="translate(-775.51 -499.75)"/><path class="cls-1" d="M797.9,518.58a19.71,19.71,0,0,0,2.56,4.95,12.23,12.23,0,0,1-3.63-2,14.44,14.44,0,0,1-2.52-3.68,19,19,0,0,0,3.59.76Z" transform="translate(-775.51 -499.75)"/><path class="cls-1" d="M797.85,518.57a19.93,19.93,0,0,0,2.53,4.93,12.05,12.05,0,0,1-3.55-2,14.44,14.44,0,0,1-2.52-3.68,18.82,18.82,0,0,0,3.54.75Z" transform="translate(-775.51 -499.75)"/><path class="cls-1" d="M797.8,518.57a20,20,0,0,0,2.5,4.9,11.92,11.92,0,0,1-3.47-2,14.44,14.44,0,0,1-2.52-3.68,18.35,18.35,0,0,0,3.49.75Z" transform="translate(-775.51 -499.75)"/><path class="cls-1" d="M797.75,518.56a20.19,20.19,0,0,0,2.47,4.88,12,12,0,0,1-3.39-1.94,14.44,14.44,0,0,1-2.52-3.68,18.4,18.4,0,0,0,3.44.74Z" transform="translate(-775.51 -499.75)"/><path class="cls-1" d="M797.7,518.55a20.08,20.08,0,0,0,2.44,4.86,11.82,11.82,0,0,1-3.31-1.91,14.44,14.44,0,0,1-2.52-3.68,18.21,18.21,0,0,0,3.39.73Z" transform="translate(-775.51 -499.75)"/><path class="cls-1" d="M797.65,518.55a20.24,20.24,0,0,0,2.41,4.82,11.4,11.4,0,0,1-3.23-1.87,14.44,14.44,0,0,1-2.52-3.68,18.73,18.73,0,0,0,3.34.73Z" transform="translate(-775.51 -499.75)"/><path class="cls-1" d="M797.6,518.54a20.51,20.51,0,0,0,2.38,4.8,11.53,11.53,0,0,1-3.15-1.84,14.44,14.44,0,0,1-2.52-3.68,18.83,18.83,0,0,0,3.29.72Z" transform="translate(-775.51 -499.75)"/><path class="cls-1" d="M797.55,518.53a20.6,20.6,0,0,0,2.35,4.78,11.63,11.63,0,0,1-3.07-1.81,14.44,14.44,0,0,1-2.52-3.68,17.58,17.58,0,0,0,3.24.71Z" transform="translate(-775.51 -499.75)"/><path class="cls-1" d="M797.49,518.53a21.07,21.07,0,0,0,2.33,4.74,11.2,11.2,0,0,1-3-1.77,14.44,14.44,0,0,1-2.52-3.68,18.14,18.14,0,0,0,3.18.71Z" transform="translate(-775.51 -499.75)"/><path class="cls-1" d="M797.44,518.52a20.76,20.76,0,0,0,2.3,4.72,11.21,11.21,0,0,1-2.91-1.74,14.44,14.44,0,0,1-2.52-3.68,18.25,18.25,0,0,0,3.13.7Z" transform="translate(-775.51 -499.75)"/><path class="cls-1" d="M797.39,518.51a21.3,21.3,0,0,0,2.27,4.7,11.24,11.24,0,0,1-2.83-1.71,14.44,14.44,0,0,1-2.52-3.68,18.38,18.38,0,0,0,3.08.69Z" transform="translate(-775.51 -499.75)"/><path class="cls-1" d="M797.34,518.51a21.07,21.07,0,0,0,2.24,4.66,11.09,11.09,0,0,1-2.75-1.67,14.44,14.44,0,0,1-2.52-3.68,18.76,18.76,0,0,0,3,.69Z" transform="translate(-775.51 -499.75)"/><path class="cls-1" d="M797.29,518.5a21.39,21.39,0,0,0,2.21,4.63,10.83,10.83,0,0,1-2.67-1.63,14.44,14.44,0,0,1-2.52-3.68,17.66,17.66,0,0,0,3,.68Z" transform="translate(-775.51 -499.75)"/><path class="cls-1" d="M797.24,518.49a21.75,21.75,0,0,0,2.18,4.61,11,11,0,0,1-2.59-1.6,14.44,14.44,0,0,1-2.52-3.68,17.81,17.81,0,0,0,2.93.67Z" transform="translate(-775.51 -499.75)"/><path class="cls-1" d="M797.19,518.48a21.84,21.84,0,0,0,2.15,4.58,10.65,10.65,0,0,1-2.51-1.56,14.44,14.44,0,0,1-2.52-3.68,18,18,0,0,0,2.88.66Z" transform="translate(-775.51 -499.75)"/><path class="cls-1" d="M797.14,518.48a21.88,21.88,0,0,0,2.12,4.54,10.52,10.52,0,0,1-2.43-1.52,14.44,14.44,0,0,1-2.52-3.68,18.4,18.4,0,0,0,2.83.66Z" transform="translate(-775.51 -499.75)"/><path class="cls-1" d="M797.09,518.47a22,22,0,0,0,2.09,4.52,10.78,10.78,0,0,1-2.35-1.49,14.44,14.44,0,0,1-2.52-3.68,18.64,18.64,0,0,0,2.78.65Z" transform="translate(-775.51 -499.75)"/><path class="cls-1" d="M797,518.46A22.16,22.16,0,0,0,799.1,523a10.55,10.55,0,0,1-2.27-1.45,14.44,14.44,0,0,1-2.52-3.68,17.42,17.42,0,0,0,2.73.64Z" transform="translate(-775.51 -499.75)"/><path class="cls-1" d="M797,518.45a22.86,22.86,0,0,0,2,4.46,10.46,10.46,0,0,1-2.19-1.41,14.44,14.44,0,0,1-2.52-3.68,17.64,17.64,0,0,0,2.68.63Z" transform="translate(-775.51 -499.75)"/><path class="cls-1" d="M796.94,518.44a22.42,22.42,0,0,0,2,4.43,10,10,0,0,1-2.11-1.37,14.44,14.44,0,0,1-2.52-3.68,17.47,17.47,0,0,0,2.63.62Z" transform="translate(-775.51 -499.75)"/><path class="cls-1" d="M796.89,518.43a23.17,23.17,0,0,0,2,4.4,10.49,10.49,0,0,1-2-1.33,14.44,14.44,0,0,1-2.52-3.68,17.74,17.74,0,0,0,2.58.61Z" transform="translate(-775.51 -499.75)"/><path class="cls-1" d="M796.83,518.43a23.37,23.37,0,0,0,1.95,4.36,10.47,10.47,0,0,1-1.95-1.29,14.44,14.44,0,0,1-2.52-3.68,17.16,17.16,0,0,0,2.52.61Z" transform="translate(-775.51 -499.75)"/><path class="cls-1" d="M796.78,518.42a23.86,23.86,0,0,0,1.92,4.33,10,10,0,0,1-1.87-1.25,14.44,14.44,0,0,1-2.52-3.68,17.46,17.46,0,0,0,2.47.6Z" transform="translate(-775.51 -499.75)"/><path class="cls-1" d="M796.73,518.41a23.7,23.7,0,0,0,1.89,4.29,9.79,9.79,0,0,1-1.79-1.2,14.44,14.44,0,0,1-2.52-3.68,17.31,17.31,0,0,0,2.42.59Z" transform="translate(-775.51 -499.75)"/><path class="cls-1" d="M796.68,518.4a23.91,23.91,0,0,0,1.86,4.26,9.3,9.3,0,0,1-1.71-1.16,14.44,14.44,0,0,1-2.52-3.68,17.68,17.68,0,0,0,2.37.58Z" transform="translate(-775.51 -499.75)"/><path class="cls-1" d="M796.63,518.39a24.25,24.25,0,0,0,1.84,4.23,9.59,9.59,0,0,1-1.64-1.12,14.44,14.44,0,0,1-2.52-3.68,16.25,16.25,0,0,0,2.32.57Z" transform="translate(-775.51 -499.75)"/><path class="cls-1" d="M796.58,518.38a23.67,23.67,0,0,0,1.81,4.19,9.47,9.47,0,0,1-1.56-1.07,14.44,14.44,0,0,1-2.52-3.68,16.59,16.59,0,0,0,2.27.56Z" transform="translate(-775.51 -499.75)"/><path class="cls-1" d="M796.53,518.37a23.91,23.91,0,0,0,1.78,4.16,9.61,9.61,0,0,1-1.48-1,14.44,14.44,0,0,1-2.52-3.68,17,17,0,0,0,2.22.55Z" transform="translate(-775.51 -499.75)"/><path class="cls-1" d="M796.48,518.36a24.1,24.1,0,0,0,1.75,4.12,8.44,8.44,0,0,1-1.4-1,14.44,14.44,0,0,1-2.52-3.68,16.88,16.88,0,0,0,2.17.54Z" transform="translate(-775.51 -499.75)"/><path class="cls-1" d="M796.43,518.35a24.73,24.73,0,0,0,1.72,4.09,9.31,9.31,0,0,1-1.32-.94,14.44,14.44,0,0,1-2.52-3.68,15.37,15.37,0,0,0,2.12.53Z" transform="translate(-775.51 -499.75)"/><path class="cls-1" d="M796.37,518.34a25.62,25.62,0,0,0,1.7,4,9.4,9.4,0,0,1-1.24-.89,14.44,14.44,0,0,1-2.52-3.68,15.84,15.84,0,0,0,2.06.52Z" transform="translate(-775.51 -499.75)"/><path class="cls-1" d="M796.32,518.33a25.91,25.91,0,0,0,1.67,4,8.88,8.88,0,0,1-1.16-.84,14.44,14.44,0,0,1-2.52-3.68,16.33,16.33,0,0,0,2,.51Z" transform="translate(-775.51 -499.75)"/><path class="cls-1" d="M796.27,518.32a25.24,25.24,0,0,0,1.64,4,8.36,8.36,0,0,1-1.08-.79,14.44,14.44,0,0,1-2.52-3.68,16.93,16.93,0,0,0,2,.5Z" transform="translate(-775.51 -499.75)"/><path class="cls-1" d="M796.22,518.31a26.16,26.16,0,0,0,1.61,3.93,8.94,8.94,0,0,1-1-.74,14.44,14.44,0,0,1-2.52-3.68,15.18,15.18,0,0,0,1.91.49Z" transform="translate(-775.51 -499.75)"/><path class="cls-1" d="M796.17,518.3a25.88,25.88,0,0,0,1.58,3.89,7.61,7.61,0,0,1-.92-.69,14.44,14.44,0,0,1-2.52-3.68,15.74,15.74,0,0,0,1.86.48Z" transform="translate(-775.51 -499.75)"/><path class="cls-1" d="M796.12,518.29a27.41,27.41,0,0,0,1.55,3.85,9.72,9.72,0,0,1-.84-.64,14.44,14.44,0,0,1-2.52-3.68,16.43,16.43,0,0,0,1.81.47Z" transform="translate(-775.51 -499.75)"/><path class="cls-1" d="M796.07,518.28a26.56,26.56,0,0,0,1.52,3.8,9.46,9.46,0,0,1-.76-.58,14.44,14.44,0,0,1-2.52-3.68,16.42,16.42,0,0,0,1.76.46Z" transform="translate(-775.51 -499.75)"/><path class="cls-1" d="M796,518.27a27,27,0,0,0,1.49,3.76c-.24-.17-.47-.35-.68-.53a14.44,14.44,0,0,1-2.52-3.68,14.45,14.45,0,0,0,1.71.45Z" transform="translate(-775.51 -499.75)"/><path class="cls-1" d="M796,518.26a28.39,28.39,0,0,0,1.47,3.71,7.35,7.35,0,0,1-.6-.47,14.44,14.44,0,0,1-2.52-3.68,15.31,15.31,0,0,0,1.65.44Z" transform="translate(-775.51 -499.75)"/><path class="cls-1" d="M795.91,518.25a28.91,28.91,0,0,0,1.44,3.66c-.18-.13-.36-.27-.52-.41a14.44,14.44,0,0,1-2.52-3.68,16.25,16.25,0,0,0,1.6.43Z" transform="translate(-775.51 -499.75)"/><path class="cls-1" d="M795.86,518.24a28.63,28.63,0,0,0,1.41,3.62l-.44-.36a14.44,14.44,0,0,1-2.52-3.68,14,14,0,0,0,1.55.42Z" transform="translate(-775.51 -499.75)"/><path class="cls-1" d="M795.81,518.23a28.51,28.51,0,0,0,1.38,3.56,3.51,3.51,0,0,1-.36-.29,14.44,14.44,0,0,1-2.52-3.68,14.93,14.93,0,0,0,1.5.41Z" transform="translate(-775.51 -499.75)"/><path class="cls-1" d="M795.76,518.21a29.22,29.22,0,0,0,1.35,3.52l-.28-.23a14.44,14.44,0,0,1-2.52-3.68,14.6,14.6,0,0,0,1.45.39Z" transform="translate(-775.51 -499.75)"/><path class="cls-1" d="M795.71,518.2a28.21,28.21,0,0,0,1.32,3.47l-.2-.17a14.44,14.44,0,0,1-2.52-3.68s.53.18,1.4.38Z" transform="translate(-775.51 -499.75)"/><path class="cls-1" d="M795.66,518.19a28,28,0,0,0,1.28,3.41l-.11-.1a14.44,14.44,0,0,1-2.52-3.68,13.27,13.27,0,0,0,1.35.37Z" transform="translate(-775.51 -499.75)"/><path class="cls-1" d="M795.6,518.18a32.86,32.86,0,0,0,1.26,3.35l0,0a14.44,14.44,0,0,1-2.52-3.68s.49.17,1.29.36Z" transform="translate(-775.51 -499.75)"/><path class="cls-1" d="M795.55,518.17a31,31,0,0,0,1.22,3.26,14.56,14.56,0,0,1-2.46-3.61s.47.16,1.24.35Z" transform="translate(-775.51 -499.75)"/><path class="cls-1" d="M795.5,518.15a29.19,29.19,0,0,0,1.16,3.16,14.05,14.05,0,0,1-2.35-3.49,11.81,11.81,0,0,0,1.19.33Z" transform="translate(-775.51 -499.75)"/><path class="cls-1" d="M795.45,518.14a29.11,29.11,0,0,0,1.11,3.05,13.58,13.58,0,0,1-2.25-3.37s.43.15,1.14.32Z" transform="translate(-775.51 -499.75)"/><path class="cls-1" d="M795.4,518.13a30.76,30.76,0,0,0,1.06,2.94,13.6,13.6,0,0,1-2.15-3.25s.4.14,1.09.31Z" transform="translate(-775.51 -499.75)"/><path class="cls-1" d="M795.35,518.12a30,30,0,0,0,1,2.83,13,13,0,0,1-2.05-3.13s.38.13,1,.3Z" transform="translate(-775.51 -499.75)"/><path class="cls-1" d="M808.88,505.23a13,13,0,0,0-5,5.62,18,18,0,0,1,.83-7.17,8.3,8.3,0,0,1,.78-1.46,18.76,18.76,0,0,1,3.6-2.31,11,11,0,0,0-.16,5.32Z" transform="translate(-775.51 -499.75)"/><path class="cls-1" d="M808.87,505.19a13.05,13.05,0,0,0-5,5.58,17.8,17.8,0,0,1,.83-7.09,8.41,8.41,0,0,1,.81-1.5,19.08,19.08,0,0,1,3.57-2.29,11,11,0,0,0-.17,5.3Z" transform="translate(-775.51 -499.75)"/><path class="cls-1" d="M808.86,505.15a13.14,13.14,0,0,0-5,5.55,18,18,0,0,1,.84-7,8.62,8.62,0,0,1,.84-1.55,18.84,18.84,0,0,1,3.55-2.26,11.15,11.15,0,0,0-.19,5.28Z" transform="translate(-775.51 -499.75)"/><path class="cls-1" d="M808.85,505.11a13.18,13.18,0,0,0-5,5.51,17.88,17.88,0,0,1,.85-6.94,8.4,8.4,0,0,1,.87-1.59,18.84,18.84,0,0,1,3.52-2.24,11.19,11.19,0,0,0-.2,5.26Z" transform="translate(-775.51 -499.75)"/><path class="cls-1" d="M808.84,505.07a13.25,13.25,0,0,0-5,5.48,17.94,17.94,0,0,1,.85-6.87,8.39,8.39,0,0,1,.91-1.64,18.5,18.5,0,0,1,3.49-2.21,11.22,11.22,0,0,0-.22,5.24Z" transform="translate(-775.51 -499.75)"/><path class="cls-1" d="M808.83,505a13.31,13.31,0,0,0-5,5.44,17.86,17.86,0,0,1,.86-6.79,8.33,8.33,0,0,1,.94-1.69,19.12,19.12,0,0,1,3.47-2.18,11.12,11.12,0,0,0-.24,5.22Z" transform="translate(-775.51 -499.75)"/><path class="cls-1" d="M808.83,505a13.29,13.29,0,0,0-5,5.4,17.91,17.91,0,0,1,.86-6.71,8.2,8.2,0,0,1,1-1.73,18.93,18.93,0,0,1,3.44-2.16,11.16,11.16,0,0,0-.24,5.2Z" transform="translate(-775.51 -499.75)"/><path class="cls-1" d="M808.82,505a13.32,13.32,0,0,0-5,5.37,17.86,17.86,0,0,1,.87-6.64,8,8,0,0,1,1-1.78,19,19,0,0,1,3.4-2.13v0a11.12,11.12,0,0,0-.25,5.16Z" transform="translate(-775.51 -499.75)"/><path class="cls-1" d="M808.81,504.9a13.53,13.53,0,0,0-5,5.34,17.92,17.92,0,0,1,.87-6.56,8,8,0,0,1,1.05-1.83,19.3,19.3,0,0,1,3.34-2.09s0,0,0,0a11.17,11.17,0,0,0-.26,5.11Z" transform="translate(-775.51 -499.75)"/><path class="cls-1" d="M808.8,504.86a13.41,13.41,0,0,0-5,5.31,17.76,17.76,0,0,1,.87-6.49,7.89,7.89,0,0,1,1.09-1.88,19.51,19.51,0,0,1,3.27-2.05s.06,0,.05,0a11.14,11.14,0,0,0-.27,5.07Z" transform="translate(-775.51 -499.75)"/><path class="cls-1" d="M808.79,504.82a13.61,13.61,0,0,0-5,5.27,18,18,0,0,1,.88-6.41,7.92,7.92,0,0,1,1.13-1.93,19.48,19.48,0,0,1,3.2-2c.06,0,.09,0,.08,0a11.24,11.24,0,0,0-.28,5Z" transform="translate(-775.51 -499.75)"/><path class="cls-1" d="M808.79,504.78a13.61,13.61,0,0,0-5,5.23,17.76,17.76,0,0,1,.88-6.33,7.84,7.84,0,0,1,1.17-2,19,19,0,0,1,3.13-1.95c.08,0,.12,0,.11,0a11.21,11.21,0,0,0-.28,5Z" transform="translate(-775.51 -499.75)"/><path class="cls-1" d="M808.78,504.74a13.66,13.66,0,0,0-5,5.19,17.84,17.84,0,0,1,.88-6.25,7.89,7.89,0,0,1,1.21-2,19.65,19.65,0,0,1,3-1.9c.1,0,.16,0,.15,0a11.17,11.17,0,0,0-.29,4.95Z" transform="translate(-775.51 -499.75)"/><path class="cls-1" d="M808.77,504.7a13.69,13.69,0,0,0-5,5.16,17.81,17.81,0,0,1,.89-6.18,7.78,7.78,0,0,1,1.25-2.08,20.41,20.41,0,0,1,3-1.85c.13,0,.2,0,.19,0a11.29,11.29,0,0,0-.3,4.91Z" transform="translate(-775.51 -499.75)"/><path class="cls-1" d="M808.77,504.66a13.69,13.69,0,0,0-5,5.12,17.91,17.91,0,0,1,.89-6.1,7.83,7.83,0,0,1,1.3-2.14,21,21,0,0,1,2.87-1.78c.16,0,.25,0,.24,0a11.25,11.25,0,0,0-.3,4.87Z" transform="translate(-775.51 -499.75)"/><path class="cls-1" d="M808.76,504.61a13.87,13.87,0,0,0-5,5.09,17.78,17.78,0,0,1,.89-6,7.76,7.76,0,0,1,1.35-2.19,19.27,19.27,0,0,1,2.77-1.72c.19,0,.3,0,.29,0a11.18,11.18,0,0,0-.31,4.82Z" transform="translate(-775.51 -499.75)"/><path class="cls-1" d="M808.75,504.57a13.89,13.89,0,0,0-5,5.06,17.92,17.92,0,0,1,.89-5.95,7.69,7.69,0,0,1,1.4-2.25,20,20,0,0,1,2.67-1.65c.22,0,.35,0,.34,0a11.31,11.31,0,0,0-.32,4.78Z" transform="translate(-775.51 -499.75)"/><path class="cls-1" d="M808.74,504.53a14,14,0,0,0-5,5,17.74,17.74,0,0,1,.89-5.87,7.84,7.84,0,0,1,1.45-2.31,20,20,0,0,1,2.56-1.58c.26-.06.41-.05.4,0a11.44,11.44,0,0,0-.33,4.74Z" transform="translate(-775.51 -499.75)"/><path class="cls-1" d="M808.74,504.49a14,14,0,0,0-5,5,17.7,17.7,0,0,1,.9-5.79,7.69,7.69,0,0,1,1.51-2.37,20.8,20.8,0,0,1,2.44-1.51c.29-.07.47-.06.46,0a11.26,11.26,0,0,0-.33,4.7Z" transform="translate(-775.51 -499.75)"/><path class="cls-1" d="M808.73,504.45a14.13,14.13,0,0,0-5,4.94,17.83,17.83,0,0,1,.9-5.71,7.73,7.73,0,0,1,1.57-2.43,19.57,19.57,0,0,1,2.32-1.43c.33-.09.53-.08.52,0a11.4,11.4,0,0,0-.34,4.66Z" transform="translate(-775.51 -499.75)"/><path class="cls-1" d="M808.73,504.4a14.27,14.27,0,0,0-5,4.91,17.65,17.65,0,0,1,.9-5.63,7.51,7.51,0,0,1,1.63-2.49,19,19,0,0,1,2.19-1.35c.37-.11.6-.11.59,0a11.34,11.34,0,0,0-.34,4.61Z" transform="translate(-775.51 -499.75)"/><path class="cls-1" d="M808.72,504.36a14.21,14.21,0,0,0-5,4.88,17.83,17.83,0,0,1,.9-5.56,7.54,7.54,0,0,1,1.7-2.56,19.74,19.74,0,0,1,2-1.26c.42-.13.68-.13.67-.07a11.33,11.33,0,0,0-.35,4.57Z" transform="translate(-775.51 -499.75)"/><path class="cls-1" d="M808.71,504.32a14.38,14.38,0,0,0-5,4.84,17.73,17.73,0,0,1,.9-5.48,7.57,7.57,0,0,1,1.77-2.63,21.05,21.05,0,0,1,1.89-1.16c.46-.16.77-.16.75-.1a11.3,11.3,0,0,0-.36,4.53Z" transform="translate(-775.51 -499.75)"/><path class="cls-1" d="M808.71,504.28a14.29,14.29,0,0,0-4.94,4.8,17.73,17.73,0,0,1,.89-5.4,7.41,7.41,0,0,1,1.85-2.7c.54-.37,1.11-.72,1.72-1.06s.86-.2.84-.13a11.46,11.46,0,0,0-.36,4.49Z" transform="translate(-775.51 -499.75)"/><path class="cls-1" d="M808.7,504.23a14.51,14.51,0,0,0-4.93,4.77,17.55,17.55,0,0,1,.89-5.32,7.5,7.5,0,0,1,2-2.79c.47-.32,1-.63,1.52-.93s1-.24.94-.17a11.4,11.4,0,0,0-.37,4.44Z" transform="translate(-775.51 -499.75)"/><path class="cls-1" d="M808.7,504.19a14.48,14.48,0,0,0-4.93,4.74,17.4,17.4,0,0,1,.89-5.25,7.34,7.34,0,0,1,2.05-2.88c.41-.27.84-.54,1.3-.8.64-.27,1.08-.28,1.06-.21a11.2,11.2,0,0,0-.37,4.4Z" transform="translate(-775.51 -499.75)"/><path class="cls-1" d="M808.69,504.15a14.57,14.57,0,0,0-4.92,4.7,17.6,17.6,0,0,1,.89-5.17,7.16,7.16,0,0,1,2.19-3q.48-.33,1-.63c.71-.34,1.22-.36,1.2-.28a11.59,11.59,0,0,0-.38,4.36Z" transform="translate(-775.51 -499.75)"/><path class="cls-1" d="M808.69,504.11a14.6,14.6,0,0,0-4.92,4.66,17.52,17.52,0,0,1,.89-5.09,7.17,7.17,0,0,1,2.38-3.13c.2-.13.41-.26.63-.38.81-.43,1.42-.47,1.4-.38a11.37,11.37,0,0,0-.38,4.32Z" transform="translate(-775.51 -499.75)"/><path class="cls-1" d="M808.68,504.06a14.84,14.84,0,0,0-4.91,4.63,17.76,17.76,0,0,1,.89-5c1.55-3.7,4.45-4.07,4.41-3.89a11.53,11.53,0,0,0-.39,4.27Z" transform="translate(-775.51 -499.75)"/><path class="cls-1" d="M808.68,504a14.79,14.79,0,0,0-4.9,4.6,17.41,17.41,0,0,1,.88-4.94c1.55-3.7,4.45-4.07,4.41-3.89a11.52,11.52,0,0,0-.39,4.23Z" transform="translate(-775.51 -499.75)"/><path class="cls-1" d="M808.67,504a14.89,14.89,0,0,0-4.89,4.56,17.23,17.23,0,0,1,.88-4.86c1.55-3.7,4.45-4.07,4.41-3.89a11.51,11.51,0,0,0-.4,4.19Z" transform="translate(-775.51 -499.75)"/><path class="cls-1" d="M808.67,503.93a15.18,15.18,0,0,0-4.89,4.53,17.62,17.62,0,0,1,.88-4.78c1.55-3.7,4.45-4.07,4.41-3.89a11.48,11.48,0,0,0-.4,4.14Z" transform="translate(-775.51 -499.75)"/><path class="cls-1" d="M808.67,503.89a15.09,15.09,0,0,0-4.88,4.49,17.24,17.24,0,0,1,.87-4.7c1.55-3.7,4.45-4.07,4.41-3.89a11.5,11.5,0,0,0-.4,4.1Z" transform="translate(-775.51 -499.75)"/><path class="cls-1" d="M808.66,503.85a15.15,15.15,0,0,0-4.87,4.46,17.56,17.56,0,0,1,.87-4.63c1.55-3.7,4.45-4.07,4.41-3.89a11.73,11.73,0,0,0-.41,4.06Z" transform="translate(-775.51 -499.75)"/><path class="cls-1" d="M808.66,503.8a15.23,15.23,0,0,0-4.86,4.43,17.3,17.3,0,0,1,.86-4.55c1.55-3.7,4.45-4.07,4.41-3.89a11.47,11.47,0,0,0-.41,4Z" transform="translate(-775.51 -499.75)"/><path class="cls-1" d="M808.66,503.76a15.26,15.26,0,0,0-4.86,4.39,17.14,17.14,0,0,1,.86-4.47c1.55-3.7,4.45-4.07,4.41-3.89a11.45,11.45,0,0,0-.41,4Z" transform="translate(-775.51 -499.75)"/><path class="cls-1" d="M808.65,503.72a15.49,15.49,0,0,0-4.84,4.35,17.26,17.26,0,0,1,.85-4.39c1.55-3.7,4.45-4.07,4.41-3.89a11.73,11.73,0,0,0-.42,3.93Z" transform="translate(-775.51 -499.75)"/><path class="cls-1" d="M808.65,503.67a15.52,15.52,0,0,0-4.84,4.33,17.26,17.26,0,0,1,.85-4.32c1.55-3.7,4.45-4.07,4.41-3.89a11.46,11.46,0,0,0-.42,3.88Z" transform="translate(-775.51 -499.75)"/><path class="cls-1" d="M808.65,503.63a15.56,15.56,0,0,0-4.83,4.29,16.86,16.86,0,0,1,.84-4.24c1.55-3.7,4.45-4.07,4.41-3.89a11.74,11.74,0,0,0-.42,3.84Z" transform="translate(-775.51 -499.75)"/><path class="cls-1" d="M808.64,503.59a15.81,15.81,0,0,0-4.82,4.25,17.42,17.42,0,0,1,.84-4.16c1.55-3.7,4.45-4.07,4.41-3.89a11.79,11.79,0,0,0-.43,3.8Z" transform="translate(-775.51 -499.75)"/><path class="cls-1" d="M808.64,503.54a15.91,15.91,0,0,0-4.81,4.22,17,17,0,0,1,.83-4.08c1.55-3.7,4.45-4.07,4.41-3.89a11.48,11.48,0,0,0-.43,3.75Z" transform="translate(-775.51 -499.75)"/><path class="cls-1" d="M808.64,503.5a15.74,15.74,0,0,0-4.8,4.19,16.78,16.78,0,0,1,.82-4c1.55-3.7,4.45-4.07,4.41-3.89a11.79,11.79,0,0,0-.43,3.71Z" transform="translate(-775.51 -499.75)"/><path class="cls-1" d="M808.64,503.45a16,16,0,0,0-4.79,4.16,17,17,0,0,1,.81-3.93c1.55-3.7,4.45-4.07,4.41-3.89a11.5,11.5,0,0,0-.43,3.66Z" transform="translate(-775.51 -499.75)"/><path class="cls-1" d="M808.63,503.41a16.11,16.11,0,0,0-4.78,4.12,17,17,0,0,1,.81-3.85c1.55-3.7,4.45-4.07,4.41-3.89a11.87,11.87,0,0,0-.44,3.62Z" transform="translate(-775.51 -499.75)"/><path class="cls-1" d="M808.63,503.36a16.14,16.14,0,0,0-4.77,4.1,16.61,16.61,0,0,1,.8-3.78c1.55-3.7,4.45-4.07,4.41-3.89a11.89,11.89,0,0,0-.44,3.57Z" transform="translate(-775.51 -499.75)"/><path class="cls-1" d="M808.63,503.32a16.33,16.33,0,0,0-4.76,4.06,16.37,16.37,0,0,1,.79-3.7c1.55-3.7,4.45-4.07,4.41-3.89a11.9,11.9,0,0,0-.44,3.53Z" transform="translate(-775.51 -499.75)"/><path class="cls-1" d="M808.63,503.28a16.4,16.4,0,0,0-4.75,4,16.63,16.63,0,0,1,.78-3.62c1.55-3.7,4.45-4.07,4.41-3.89a11.63,11.63,0,0,0-.44,3.49Z" transform="translate(-775.51 -499.75)"/><path class="cls-1" d="M808.63,503.23a16.72,16.72,0,0,0-4.75,4,16.73,16.73,0,0,1,.78-3.55c1.55-3.7,4.45-4.07,4.41-3.89a12,12,0,0,0-.44,3.44Z" transform="translate(-775.51 -499.75)"/><path class="cls-1" d="M808.63,503.19a16.63,16.63,0,0,0-4.74,4,16.5,16.5,0,0,1,.77-3.47c1.55-3.7,4.45-4.07,4.41-3.89a11.76,11.76,0,0,0-.44,3.4Z" transform="translate(-775.51 -499.75)"/><path class="cls-1" d="M808.63,503.14a16.92,16.92,0,0,0-4.73,3.93,16.86,16.86,0,0,1,.76-3.39c1.55-3.7,4.45-4.07,4.41-3.89a11.42,11.42,0,0,0-.44,3.35Z" transform="translate(-775.51 -499.75)"/><path class="cls-1" d="M808.63,503.1a16.72,16.72,0,0,0-4.72,3.9,16.65,16.65,0,0,1,.75-3.32c1.55-3.7,4.45-4.07,4.41-3.89a11.84,11.84,0,0,0-.44,3.31Z" transform="translate(-775.51 -499.75)"/><path class="cls-1" d="M808.62,503.05a17.14,17.14,0,0,0-4.7,3.87,16.2,16.2,0,0,1,.74-3.24c1.55-3.7,4.45-4.07,4.41-3.89a11.89,11.89,0,0,0-.45,3.26Z" transform="translate(-775.51 -499.75)"/><path class="cls-1" d="M808.62,503a17.26,17.26,0,0,0-4.69,3.84,16,16,0,0,1,.73-3.17c1.55-3.7,4.45-4.07,4.41-3.89a12,12,0,0,0-.45,3.22Z" transform="translate(-775.51 -499.75)"/><path class="cls-1" d="M808.62,503a17.44,17.44,0,0,0-4.68,3.81,15.78,15.78,0,0,1,.72-3.09c1.55-3.7,4.45-4.07,4.41-3.89a12.07,12.07,0,0,0-.45,3.17Z" transform="translate(-775.51 -499.75)"/><path class="cls-1" d="M808.62,502.92A17.38,17.38,0,0,0,804,506.7a16.53,16.53,0,0,1,.71-3c1.55-3.7,4.45-4.07,4.41-3.89a12.18,12.18,0,0,0-.45,3.13Z" transform="translate(-775.51 -499.75)"/><path class="cls-1" d="M808.62,502.87a17.72,17.72,0,0,0-4.66,3.75,16.06,16.06,0,0,1,.7-2.94c1.55-3.7,4.45-4.07,4.41-3.89a11.85,11.85,0,0,0-.45,3.08Z" transform="translate(-775.51 -499.75)"/><path class="cls-1" d="M808.63,502.82a17.76,17.76,0,0,0-4.65,3.72,15.45,15.45,0,0,1,.68-2.86c1.55-3.7,4.45-4.07,4.41-3.89a12,12,0,0,0-.44,3Z" transform="translate(-775.51 -499.75)"/><path class="cls-1" d="M808.63,502.78a17.7,17.7,0,0,0-4.64,3.69,15.26,15.26,0,0,1,.67-2.79c1.55-3.7,4.45-4.07,4.41-3.89a11.58,11.58,0,0,0-.44,3Z" transform="translate(-775.51 -499.75)"/><path class="cls-1" d="M808.63,502.73a18.08,18.08,0,0,0-4.63,3.66,16.21,16.21,0,0,1,.66-2.71c1.55-3.7,4.45-4.07,4.41-3.89a11.69,11.69,0,0,0-.44,2.94Z" transform="translate(-775.51 -499.75)"/><path class="cls-1" d="M808.63,502.69a17.8,17.8,0,0,0-4.62,3.63,15.71,15.71,0,0,1,.65-2.64c1.55-3.7,4.45-4.07,4.41-3.89a11.83,11.83,0,0,0-.44,2.9Z" transform="translate(-775.51 -499.75)"/><path class="cls-1" d="M808.63,502.64a18.19,18.19,0,0,0-4.61,3.6,15.58,15.58,0,0,1,.64-2.56c1.55-3.7,4.45-4.07,4.41-3.89a12,12,0,0,0-.44,2.85Z" transform="translate(-775.51 -499.75)"/><path class="cls-1" d="M808.63,502.6a17.93,17.93,0,0,0-4.59,3.57,14.91,14.91,0,0,1,.62-2.49c1.55-3.7,4.45-4.07,4.41-3.89a12.16,12.16,0,0,0-.44,2.81Z" transform="translate(-775.51 -499.75)"/><path class="cls-1" d="M808.63,502.55a18.35,18.35,0,0,0-4.58,3.55,14.75,14.75,0,0,1,.61-2.42c1.55-3.7,4.45-4.07,4.41-3.89a12.35,12.35,0,0,0-.44,2.76Z" transform="translate(-775.51 -499.75)"/><path class="cls-1" d="M808.63,502.5a18.59,18.59,0,0,0-4.57,3.52,14.64,14.64,0,0,1,.6-2.34c1.55-3.7,4.45-4.07,4.41-3.89a12,12,0,0,0-.44,2.71Z" transform="translate(-775.51 -499.75)"/><path class="cls-1" d="M808.64,502.46a18.41,18.41,0,0,0-4.56,3.49,15.36,15.36,0,0,1,.58-2.27c1.55-3.7,4.45-4.07,4.41-3.89a12.12,12.12,0,0,0-.43,2.67Z" transform="translate(-775.51 -499.75)"/><path class="cls-1" d="M808.64,502.41a19.06,19.06,0,0,0-4.55,3.46,15.34,15.34,0,0,1,.57-2.19c1.55-3.7,4.45-4.07,4.41-3.89a12.36,12.36,0,0,0-.43,2.62Z" transform="translate(-775.51 -499.75)"/><path class="cls-1" d="M808.64,502.36a19.35,19.35,0,0,0-4.54,3.44,15.29,15.29,0,0,1,.56-2.12c1.55-3.7,4.45-4.07,4.41-3.89a12,12,0,0,0-.43,2.57Z" transform="translate(-775.51 -499.75)"/><path class="cls-1" d="M808.64,502.32a19.47,19.47,0,0,0-4.52,3.4,14.59,14.59,0,0,1,.54-2c1.55-3.7,4.45-4.07,4.41-3.89a12.83,12.83,0,0,0-.43,2.53Z" transform="translate(-775.51 -499.75)"/><path class="cls-1" d="M808.65,502.27a19.31,19.31,0,0,0-4.52,3.38,14.55,14.55,0,0,1,.53-2c1.55-3.7,4.45-4.07,4.41-3.89a11.77,11.77,0,0,0-.42,2.48Z" transform="translate(-775.51 -499.75)"/><path class="cls-1" d="M808.65,502.22a19.59,19.59,0,0,0-4.5,3.36,13.77,13.77,0,0,1,.51-1.9c1.55-3.7,4.45-4.07,4.41-3.89a12.07,12.07,0,0,0-.42,2.43Z" transform="translate(-775.51 -499.75)"/><path class="cls-1" d="M808.65,502.18a19.75,19.75,0,0,0-4.49,3.32,13.83,13.83,0,0,1,.5-1.82c1.55-3.7,4.45-4.07,4.41-3.89a12.26,12.26,0,0,0-.42,2.39Z" transform="translate(-775.51 -499.75)"/><path class="cls-1" d="M808.66,502.13a19.86,19.86,0,0,0-4.48,3.3,13,13,0,0,1,.48-1.75c1.55-3.7,4.45-4.07,4.41-3.89a11.88,11.88,0,0,0-.41,2.34Z" transform="translate(-775.51 -499.75)"/><path class="cls-1" d="M808.66,502.08a20,20,0,0,0-4.46,3.28,12.25,12.25,0,0,1,.46-1.68c1.55-3.7,4.45-4.07,4.41-3.89a12.26,12.26,0,0,0-.41,2.29Z" transform="translate(-775.51 -499.75)"/><path class="cls-1" d="M808.66,502a20.79,20.79,0,0,0-4.45,3.25,14.69,14.69,0,0,1,.45-1.6c1.55-3.7,4.45-4.07,4.41-3.89a12.72,12.72,0,0,0-.41,2.24Z" transform="translate(-775.51 -499.75)"/><path class="cls-1" d="M808.67,502a20.16,20.16,0,0,0-4.44,3.22,13.79,13.79,0,0,1,.43-1.53c1.55-3.7,4.45-4.07,4.41-3.89a12.28,12.28,0,0,0-.4,2.2Z" transform="translate(-775.51 -499.75)"/><path class="cls-1" d="M808.67,501.94a20.52,20.52,0,0,0-4.43,3.2,14,14,0,0,1,.42-1.46c1.55-3.7,4.45-4.07,4.41-3.89a12.62,12.62,0,0,0-.4,2.15Z" transform="translate(-775.51 -499.75)"/><path class="cls-1" d="M808.68,501.89a20.93,20.93,0,0,0-4.42,3.17,13.3,13.3,0,0,1,.4-1.38c1.55-3.7,4.45-4.07,4.41-3.89a12.22,12.22,0,0,0-.39,2.1Z" transform="translate(-775.51 -499.75)"/><path class="cls-1" d="M808.68,501.84a21.31,21.31,0,0,0-4.4,3.15,12.37,12.37,0,0,1,.38-1.31c1.55-3.7,4.45-4.07,4.41-3.89a12.84,12.84,0,0,0-.39,2Z" transform="translate(-775.51 -499.75)"/><path class="cls-1" d="M808.69,501.8a20.62,20.62,0,0,0-4.39,3.12,11.45,11.45,0,0,1,.36-1.24c1.55-3.7,4.45-4.07,4.41-3.89a12.14,12.14,0,0,0-.38,2Z" transform="translate(-775.51 -499.75)"/><path class="cls-1" d="M808.69,501.75a21.29,21.29,0,0,0-4.38,3.1c.19-.74.35-1.17.35-1.17,1.55-3.7,4.45-4.07,4.41-3.89a12.84,12.84,0,0,0-.38,2Z" transform="translate(-775.51 -499.75)"/><path class="cls-1" d="M808.7,501.7a21.76,21.76,0,0,0-4.37,3.07c.18-.69.33-1.09.33-1.09,1.55-3.7,4.45-4.07,4.41-3.89a12,12,0,0,0-.37,1.91Z" transform="translate(-775.51 -499.75)"/><path class="cls-1" d="M808.7,501.65a22.2,22.2,0,0,0-4.35,3.05c.17-.65.31-1,.31-1,1.55-3.7,4.45-4.07,4.41-3.89a12.75,12.75,0,0,0-.37,1.86Z" transform="translate(-775.51 -499.75)"/><path class="cls-1" d="M808.71,501.6a22.25,22.25,0,0,0-4.34,3c.16-.61.29-.95.29-.95,1.55-3.7,4.45-4.07,4.41-3.89a12.08,12.08,0,0,0-.36,1.81Z" transform="translate(-775.51 -499.75)"/><path class="cls-1" d="M808.71,501.56a21.87,21.87,0,0,0-4.32,3c.15-.56.27-.88.27-.88,1.55-3.7,4.45-4.07,4.41-3.89a12.87,12.87,0,0,0-.36,1.77Z" transform="translate(-775.51 -499.75)"/><path class="cls-1" d="M808.72,501.51a22.05,22.05,0,0,0-4.31,3c.14-.52.25-.81.25-.81,1.55-3.7,4.45-4.07,4.41-3.89a12.45,12.45,0,0,0-.35,1.72Z" transform="translate(-775.51 -499.75)"/><path class="cls-1" d="M808.73,501.46a22.44,22.44,0,0,0-4.3,3c.13-.47.23-.73.23-.73,1.55-3.7,4.45-4.07,4.41-3.89a13.31,13.31,0,0,0-.34,1.67Z" transform="translate(-775.51 -499.75)"/><path class="cls-1" d="M808.73,501.41a23,23,0,0,0-4.28,2.93c.12-.42.21-.66.21-.66,1.55-3.7,4.45-4.07,4.41-3.89a12.86,12.86,0,0,0-.34,1.62Z" transform="translate(-775.51 -499.75)"/><path class="cls-1" d="M808.74,501.36a23.18,23.18,0,0,0-4.27,2.91c.11-.38.19-.59.19-.59,1.55-3.7,4.45-4.07,4.41-3.89a12.08,12.08,0,0,0-.33,1.57Z" transform="translate(-775.51 -499.75)"/><path class="cls-1" d="M808.75,501.31a23.24,23.24,0,0,0-4.26,2.89c.1-.34.17-.52.17-.52,1.55-3.7,4.45-4.07,4.41-3.89a13.59,13.59,0,0,0-.32,1.52Z" transform="translate(-775.51 -499.75)"/><path class="cls-1" d="M808.75,501.26a23.81,23.81,0,0,0-4.24,2.87c.09-.29.15-.45.15-.45,1.55-3.7,4.45-4.07,4.41-3.89a12.69,12.69,0,0,0-.32,1.47Z" transform="translate(-775.51 -499.75)"/><path class="cls-1" d="M808.76,501.21a23.91,23.91,0,0,0-4.22,2.84c.07-.24.12-.37.12-.37,1.55-3.7,4.45-4.07,4.41-3.89-.12.45-.23.93-.31,1.42Z" transform="translate(-775.51 -499.75)"/><path class="cls-1" d="M808.77,501.16a24.56,24.56,0,0,0-4.21,2.82c.06-.2.1-.3.1-.3,1.55-3.7,4.45-4.07,4.41-3.89a13.18,13.18,0,0,0-.3,1.37Z" transform="translate(-775.51 -499.75)"/><path class="cls-1" d="M808.78,501.12a23.91,23.91,0,0,0-4.2,2.79l.08-.23c1.55-3.7,4.45-4.07,4.41-3.89a12.42,12.42,0,0,0-.29,1.33Z" transform="translate(-775.51 -499.75)"/><path class="cls-1" d="M808.79,501.07a24,24,0,0,0-4.19,2.77l.06-.16c1.55-3.7,4.45-4.07,4.41-3.89a11.5,11.5,0,0,0-.28,1.28Z" transform="translate(-775.51 -499.75)"/><path class="cls-1" d="M808.8,501a24.3,24.3,0,0,0-4.17,2.74l0-.08c1.55-3.7,4.45-4.07,4.41-3.89a11.1,11.1,0,0,0-.27,1.23Z" transform="translate(-775.51 -499.75)"/><path class="cls-1" d="M808.8,501a25.16,25.16,0,0,0-4.15,2.72h0c1.55-3.7,4.45-4.07,4.41-3.89-.1.37-.19.77-.27,1.18Z" transform="translate(-775.51 -499.75)"/><path class="cls-1" d="M808.81,500.92a25.29,25.29,0,0,0-4.12,2.69c1.56-3.63,4.42-4,4.38-3.82-.1.36-.19.73-.26,1.13Z" transform="translate(-775.51 -499.75)"/><path class="cls-1" d="M808.82,500.87a25.89,25.89,0,0,0-4.1,2.66c1.57-3.56,4.39-3.92,4.35-3.74-.09.34-.18.7-.25,1.08Z" transform="translate(-775.51 -499.75)"/><path class="cls-1" d="M808.83,500.82a25.33,25.33,0,0,0-4.07,2.63c1.57-3.49,4.35-3.84,4.31-3.66s-.17.67-.24,1Z" transform="translate(-775.51 -499.75)"/><path class="cls-1" d="M808.84,500.77a26.22,26.22,0,0,0-4,2.6c1.57-3.41,4.31-3.76,4.27-3.58s-.16.64-.23,1Z" transform="translate(-775.51 -499.75)"/><path class="cls-1" d="M808.85,500.72a26.12,26.12,0,0,0-4,2.57c1.59-3.34,4.28-3.67,4.24-3.5s-.16.61-.22.93Z" transform="translate(-775.51 -499.75)"/><path class="cls-1" d="M808.86,500.66a26.5,26.5,0,0,0-4,2.55c1.59-3.26,4.24-3.59,4.2-3.42s-.15.57-.21.87Z" transform="translate(-775.51 -499.75)"/><path class="cls-1" d="M775.51,529.18h7.21v1.3H777v2.87h4.07v1.3H777v3.51h5.73v1.29h-7.21V529.18ZM839,533.33l.42-1.22a8.41,8.41,0,0,0-2.77-.34c-1.9,0-2.85.82-2.85,2.43s1.59,2.08,2.75,2.08,1.71.53,1.71,1.16-.5,1.09-1.71,1.09a6.71,6.71,0,0,1-2.27-.43l-.37,1.19a11.2,11.2,0,0,0,2.9.37c1.66,0,2.88-.74,2.88-2.27s-.87-2.37-2.85-2.37-2.11-2-.14-2,2.3.35,2.3.35Zm-6.39.81c0-2.77-3.54-2.91-5.81-2l.44,1c2.4-.82,3.89,0,3.89.71V535c-1-.25-4.82-1-4.82,1.73v1.21s.21,2.62,4.82,1.48v.11l1.48-.45v-4.89Zm-1.48,1.79c-.68-.13-3.32-.55-3.32,1v.45c0,1.48,2.11,1.3,3.32.92v-2.33Zm-16-7.35v3.71a2.11,2.11,0,0,1,1.46-.55h.76a3,3,0,0,1,3,3v1.9a3,3,0,0,1-3,3,7.67,7.67,0,0,1-3.7-.63v-9.82l1.48-.63Zm0,5.22v4.28a1.74,1.74,0,0,0,1.13.28h1.19a1.51,1.51,0,0,0,1.35-1.63v-2.06A1.52,1.52,0,0,0,817.4,533h-1a1.52,1.52,0,0,0-1.28.76Zm6.41-1.82H823v.42a3.57,3.57,0,0,1,2.72-.48v1.27c-1-.21-2.73,0-2.73.69v5.6h-1.48V532Zm-21,0H802v.42a3.61,3.61,0,0,1,2.73-.48v1.27c-1-.21-2.73,0-2.73.69v5.6h-1.48V532Zm-3.8-2v2h2.64v1.29h-2.64V537c0,2.06,1.65,1.45,2.57,1.2l.26,1.17c-1.94.5-4.3.93-4.3-2.4v-6.33l1.47-.64Zm-6.25,1.77h.61a3,3,0,0,1,3,3v1.3H789v.68a1.51,1.51,0,0,0,1.34,1.63h.74a7.63,7.63,0,0,0,2.23-.29l.25,1.15a6.91,6.91,0,0,1-2.48.44h-.63a3,3,0,0,1-3-3v-1.9a3,3,0,0,1,3-3Zm2.06,3.14v-.21a1.52,1.52,0,0,0-1.35-1.63h-.82a1.51,1.51,0,0,0-1.34,1.63v.21Zm15.81-3.14h1a3,3,0,0,1,3,3v1.9a3,3,0,0,1-3,3h-1a3,3,0,0,1-3-3v-1.9a3,3,0,0,1,3-3Zm-.11,1.3h1.19a1.52,1.52,0,0,1,1.35,1.63v2.06a1.51,1.51,0,0,1-1.35,1.63h-1.19a1.51,1.51,0,0,1-1.34-1.63v-2.06a1.51,1.51,0,0,1,1.34-1.63Zm-22.67-4.46v8.18a1.9,1.9,0,0,0,1.08,2l-.79,1a3.2,3.2,0,0,1-1.77-3v-7.57l1.48-.63Z" transform="translate(-775.51 -499.75)"/></svg>