<svg id="Camada_1" data-name="Camada 1" xmlns="http://www.w3.org/2000/svg" viewBox="0 0 69 40"><defs><style>.cls-1,.cls-2{fill:#202020;}.cls-1{fill-rule:evenodd;}</style></defs><path class="cls-1" d="M408,258.1c9.71,0,17.82-4.17,17.67-8.7S417.71,241,408,241s-17.78,3.74-17.78,8.4,8,8.7,17.78,8.7Zm-16.36-8.77c.14-4.16,7.36-7.55,16.29-7.55s16.19,3.44,16.27,7.67-7.28,7.89-16.2,7.89S391.47,253.5,391.62,249.33Z" transform="translate(-373.42 -241)"/><path class="cls-1" d="M406.77,254.59a2.49,2.49,0,0,1-1.14-.28,1.49,1.49,0,0,1-.36-1.15v-2.79h5.29v2.79a1.53,1.53,0,0,1-.35,1.15,2.52,2.52,0,0,1-1.13.28v.65H414v-.65a2.45,2.45,0,0,1-1.14-.28,1.49,1.49,0,0,1-.36-1.15v-7.22a1.46,1.46,0,0,1,.36-1.15,2.58,2.58,0,0,1,1.14-.28v-.65h-4.94v.65a2.66,2.66,0,0,1,1.13.28,1.5,1.5,0,0,1,.35,1.15v2.79h-5.29v-2.79a1.46,1.46,0,0,1,.36-1.15,2.63,2.63,0,0,1,1.14-.28v-.65h-4.94v.65a2.67,2.67,0,0,1,1.14.28,1.5,1.5,0,0,1,.36,1.15v7.22a1.53,1.53,0,0,1-.36,1.15,2.53,2.53,0,0,1-1.14.28v.65h4.94Z" transform="translate(-373.42 -241)"/><path class="cls-1" d="M406.23,264v-.77H400.7V264a2.1,2.1,0,0,1,1.16.33,3,3,0,0,1,1,1.37l4.8,11h.52l4.78-11a3,3,0,0,1,1-1.37,2.17,2.17,0,0,1,1.17-.33v-.77h-5.53l0,.77a2,2,0,0,1,1.19.33c.16.25.11.7-.17,1.37-.76,1.69-1.51,3.41-2.23,5.12l-.35.8-.15.34-.14-.34-.34-.8c-.76-1.71-1.51-3.43-2.24-5.12-.31-.67-.36-1.12-.19-1.37A2,2,0,0,1,406.23,264Z" transform="translate(-373.42 -241)"/><path class="cls-1" d="M375.86,275.58a2.76,2.76,0,0,1-1.33.35v.77h5.85v-.77a2.77,2.77,0,0,1-1.34-.35,1.74,1.74,0,0,1-.42-1.36v-3.29h6.27v3.29a1.7,1.7,0,0,1-.43,1.36,2.81,2.81,0,0,1-1.34.35v.77H389v-.77a2.76,2.76,0,0,1-1.33-.35,1.7,1.7,0,0,1-.42-1.36v-8.51a1.74,1.74,0,0,1,.42-1.37A2.81,2.81,0,0,1,389,264v-.77h-5.85V264a2.86,2.86,0,0,1,1.34.33,1.74,1.74,0,0,1,.43,1.37V269h-6.27v-3.28a1.78,1.78,0,0,1,.42-1.37,2.82,2.82,0,0,1,1.34-.33v-.77h-5.85V264a2.81,2.81,0,0,1,1.33.33,1.74,1.74,0,0,1,.44,1.37v8.51A1.7,1.7,0,0,1,375.86,275.58Z" transform="translate(-373.42 -241)"/><path class="cls-1" d="M427.93,275.58a1.7,1.7,0,0,1-1.06.35v.77h5.21v-.77a2.48,2.48,0,0,1-1.24-.35,1.83,1.83,0,0,1-.38-1.36v-6.77c2.41,3.06,5,6.09,7.26,9.25h2.15v-11a1.91,1.91,0,0,1,.39-1.37,1.81,1.81,0,0,1,1.06-.33v-.77h-5.21V264a2.48,2.48,0,0,1,1.24.33,1.91,1.91,0,0,1,.39,1.37v7.65l-8-10.12h-2.89V264a1.73,1.73,0,0,1,1.06.33,1.91,1.91,0,0,1,.39,1.37v8.51A1.87,1.87,0,0,1,427.93,275.58Z" transform="translate(-373.42 -241)"/><rect class="cls-2" y="17.94" width="69" height="2.53"/><path class="cls-1" d="M397.16,263.24l-4.8,11a2.8,2.8,0,0,1-1,1.36,2.08,2.08,0,0,1-1.15.35v.77h5.51v-.77a2,2,0,0,1-1.19-.35c-.18-.24-.12-.69.16-1.36l.47-1.05h4.55l.45,1.05c.29.67.36,1.12.19,1.36a2.11,2.11,0,0,1-1.2.35l0,.77h5.52v-.77a2,2,0,0,1-1.14-.35,2.81,2.81,0,0,1-1-1.36l-4.8-11Zm-1.17,8c.49-1.1.95-2.19,1.44-3.28.47,1.09.95,2.18,1.42,3.28Z" transform="translate(-373.42 -241)"/><path class="cls-1" d="M420.14,275.93v.77h5.52v-.77a2.08,2.08,0,0,1-1.15-.35,2.86,2.86,0,0,1-1-1.36l-4.8-11h-.52l-4.8,11a2.86,2.86,0,0,1-1,1.36,2.16,2.16,0,0,1-1.16.35v.77h5.51v-.77a2,2,0,0,1-1.19-.35c-.18-.24-.11-.69.17-1.36l.47-1.05h4.55l.45,1.05c.28.67.35,1.12.18,1.36a2,2,0,0,1-1.2.35Zm-3.14-4.7c.48-1.1.95-2.19,1.43-3.28.47,1.09,1,2.18,1.43,3.28Z" transform="translate(-373.42 -241)"/><rect class="cls-2" y="37.47" width="69" height="2.53"/></svg>