<svg id="Camada_1" data-name="Camada 1" xmlns="http://www.w3.org/2000/svg" viewBox="0 0 189.39 47.67"><defs><style>.cls-1{fill:#212121;}.cls-2,.cls-3{fill:#fff;}.cls-3{stroke:#262f76;stroke-miterlimit:10;}</style></defs><path class="cls-1" d="M147,166h0a3.59,3.59,0,0,0-3.62,3.54v.18h7.33A3.81,3.81,0,0,0,147,166m-.83-3.32h1.65a7.29,7.29,0,0,1,6.07,3.2c1.51,2.22,1.06,4.15,1.28,6.7H143.36v.09a3.6,3.6,0,0,0,3.62,3.55h0a3.66,3.66,0,0,0,2.71-1.21h5a7.32,7.32,0,0,1-6.91,4.84h-1.65a7.25,7.25,0,0,1-7.3-7.16v-2.85A7.25,7.25,0,0,1,146.15,162.68Zm18.36,28.13h0a3.6,3.6,0,0,0-3.61,3.55v.17h7.33A3.81,3.81,0,0,0,164.51,190.81Zm-.82-3.32h1.65a7.32,7.32,0,0,1,6.07,3.2c1.51,2.23,1.06,4.16,1.28,6.7H160.9v.09a3.6,3.6,0,0,0,3.61,3.55h0a3.65,3.65,0,0,0,2.71-1.2h5a7.3,7.3,0,0,1-6.9,4.84h-1.65a7.26,7.26,0,0,1-7.3-7.17v-2.84A7.26,7.26,0,0,1,163.69,187.49Zm-8.59,4.34H153a3.7,3.7,0,0,0-2.58,1,3.55,3.55,0,0,0-1.07,2.53v8.93h-4.06v-8.93a7.46,7.46,0,0,1,2.27-5.34,7.74,7.74,0,0,1,5.44-2.22h2.06Zm-21.48,12.51L128,187.82h4.43l3.37,11.09q1.47-4.83,2.95-9.66a2.1,2.1,0,0,1,2.11-1.43h2.75l-5.59,16.52Zm-13.05-18.06V182H125v4.31Zm0,18.06V187.8H125v16.54Zm-8.67,0V184.49c0-1.36,2.36-2.52,4.43-2.52v22.37Zm85.17-32.62c-1.55,0-6,.8-6,3.18a2.31,2.31,0,0,0,2.4,2.2h0a3.46,3.46,0,0,0,3.59-3.29Zm-4.75-8.85h4.38a4.9,4.9,0,0,1,4.93,4.84v5.6h0v.27a5.25,5.25,0,0,1-1.27,3.8,6.6,6.6,0,0,1-5.31,2.65h-3.12a5.11,5.11,0,0,1-5.14-5v-.4c0-4,3.92-5,7.42-5a4.68,4.68,0,0,0,2.86-1.06v-1.85a3.51,3.51,0,0,0-2.75-.86,2.45,2.45,0,0,0-2.77,2.51h-4.16v-.59A4.9,4.9,0,0,1,192.32,162.87Zm38.45,3.64a3.59,3.59,0,0,0-3.59,3.54v2.81a3.6,3.6,0,0,0,7.19,0v-2.81A3.59,3.59,0,0,0,230.77,166.51Zm-.8-3.64h1.65a7.29,7.29,0,0,1,7.19,5.9h0a7.47,7.47,0,0,1,.11,1.26v2.85a6.45,6.45,0,0,1,0,.76h0a7.27,7.27,0,0,1-7.26,6.4h-1.69a7.27,7.27,0,0,1-7.26-6.4h0a6.45,6.45,0,0,1,0-.76V170a7.47,7.47,0,0,1,.11-1.26h0a7.29,7.29,0,0,1,7.19-5.9Zm-14.41,6.21-.16-.31a3.62,3.62,0,0,0-3.37-2.26h0a3.59,3.59,0,0,0-3.61,3.54v2.81a3.6,3.6,0,0,0,3.61,3.55h0a3.61,3.61,0,0,0,3.53-2.77Zm-4.35-6.21a6.86,6.86,0,0,1,4.35,2v-4.66a3.22,3.22,0,0,1,3.25-3.18h1.29v16.64h0a7.27,7.27,0,0,1-7.26,6.4h-1.65a7.25,7.25,0,0,1-7.3-7.16V170A7.25,7.25,0,0,1,211.21,162.87Zm-35,0h1.65a7.29,7.29,0,0,1,7.19,5.9H180.4a3.94,3.94,0,0,0-3.37-2.58h0a3.59,3.59,0,0,0-3.62,3.54v3.13a3.6,3.6,0,0,0,3.62,3.55h0a3.61,3.61,0,0,0,3.52-2.77h4.56a7.27,7.27,0,0,1-7.26,6.4H176.2a7.25,7.25,0,0,1-7.3-7.16V170A7.25,7.25,0,0,1,176.2,162.87Zm-8.54,3.88h-2A3.66,3.66,0,0,0,163,167.8a3.55,3.55,0,0,0-1.07,2.53v8.93H157.9v-8.93a7.49,7.49,0,0,1,2.26-5.34,7.78,7.78,0,0,1,5.45-2.22h2ZM132.5,179.26v-9.73a2.75,2.75,0,0,0-.83-2,2.86,2.86,0,0,0-2-.82h-.51a2.86,2.86,0,0,0-2,.82,2.75,2.75,0,0,0-.83,2v9.73h-4.06v-9.73a2.75,2.75,0,0,0-.83-2,2.86,2.86,0,0,0-2-.82h-.51a2.86,2.86,0,0,0-2,.82,2.75,2.75,0,0,0-.83,2v9.73H112v-9.73a6.73,6.73,0,0,1,2-4.78,7,7,0,0,1,4.88-2h.51a7,7,0,0,1,4.87,2,7,7,0,0,1,4.87-2h.51a6.94,6.94,0,0,1,4.87,2,6.7,6.7,0,0,1,2,4.78v9.73Z" transform="translate(-49.49 -157)"/><path class="cls-1" d="M107.54,183c0,11.13-13,20.15-29,20.15s-29-9-29-20.15,13-20.16,29-20.16S107.54,171.89,107.54,183Z" transform="translate(-49.49 -157)"/><path class="cls-2" d="M106.17,181.6c0,9.91-12.41,18-27.72,18s-27.72-8.05-27.72-18,12.41-18,27.72-18S106.17,171.68,106.17,181.6Z" transform="translate(-49.49 -157)"/><path class="cls-3" d="M76.28,175" transform="translate(-49.49 -157)"/><path class="cls-3" d="M71.9,172.6" transform="translate(-49.49 -157)"/><path class="cls-1" d="M106.52,180.55l0-.41c-.44-3.7-2.55-7.19-6.09-10.08l-.25-.2-.29.15c-4.92,2.72-10.23,2.83-15.77.35-7.56-3.39-11.3.53-11.45.69l-.87.9a41.69,41.69,0,0,0-6.31.43,23.08,23.08,0,0,1-8.23-2.66l-.28-.14-.24.19c-3.87,3-6.11,6.73-6.48,10.69l.48,0-.07.48a32.74,32.74,0,0,1,11.52,4l.1,0a2.8,2.8,0,0,0,2.67,3.76,1.46,1.46,0,0,0,.29,0,2.89,2.89,0,0,0,1.66,2,2.72,2.72,0,0,0,2,0,3,3,0,0,0,1.7,1.88,3,3,0,0,0,2.18,0A3.14,3.14,0,0,0,78,194a6.46,6.46,0,0,0,2.78.75,2.87,2.87,0,0,0,2.18-.88c1.3,0,3.44-.4,4-2.2a4,4,0,0,0,3.84-3,4.33,4.33,0,0,0,2.73-1,2.59,2.59,0,0,0,.47-3c.79-.43,3.43-1.51,12.18-4Z" transform="translate(-49.49 -157)"/><path class="cls-2" d="M73.6,191.92l-.08-.75-.64.38a2.16,2.16,0,0,1-1.91.22A2.22,2.22,0,0,1,69.7,190l-.13-.7-.6.37a1.91,1.91,0,0,1-1.74.23,2,2,0,0,1-1.16-1.75l-.07-.57-.55.17a2,2,0,0,1-.54.09A1.87,1.87,0,0,1,63,186a1.94,1.94,0,0,1,.14-.73l.1-.17a1.81,1.81,0,0,1,.67-.7l0,0a1.53,1.53,0,0,1,.37-.16l.09,0a1.76,1.76,0,0,1,.46-.06,1.88,1.88,0,0,1,1.62,1l.28.5.45-.37a2.06,2.06,0,0,1,2.08-.47,1.91,1.91,0,0,1,1.08,1.36l.18.69.57-.42a2.24,2.24,0,0,1,2.15-.37A2.62,2.62,0,0,1,74.58,189l-.16.77.76-.21a2,2,0,0,1,.59-.1,2.21,2.21,0,0,1,2.2,2.2,2.58,2.58,0,0,1,0,.39l-.06.2c0,.06,0,.11,0,.16s-.08.18-.13.27l0,0a1.87,1.87,0,0,1-.2.29l0,.05a2.18,2.18,0,0,1-3.85-1.17Z" transform="translate(-49.49 -157)"/><path class="cls-2" d="M92.77,187a3.43,3.43,0,0,1-2.08.72L85.9,183.3c-.2-.19-.43-.32-.62-.13s0,.51.21.7l4.35,4.34a3,3,0,0,1-3.09,2.44l-3-3.12c-.18-.2-.44-.39-.64-.22s0,.46.19.66L86,191.24c-.33,1.37-2.07,1.58-2.85,1.6l-2.91-3c-.17-.2-.41-.37-.61-.19s0,.47.15.67l2.4,2.9c-1.07,1-3,.25-3.61,0a1,1,0,0,1,0-.1,2.4,2.4,0,0,0,.11-.23,3.5,3.5,0,0,0,.14-.46l0-.14a3.31,3.31,0,0,0,.05-.55,3.16,3.16,0,0,0-3.32-3.16,3.4,3.4,0,0,0-1.92-3.46,3.05,3.05,0,0,0-2.55.16,2.86,2.86,0,0,0-.24-.42s0,0,0,0a1.27,1.27,0,0,0-.1-.12,2.69,2.69,0,0,0-1.08-.84,2.86,2.86,0,0,0-2.64.32,2.56,2.56,0,0,0-.42-.39l0,0-.25-.16a2.84,2.84,0,0,0-1.45-.42,3,3,0,0,0-.52.05l-.09,0a2.25,2.25,0,0,0-.42.13l-.15.06a2.79,2.79,0,0,0-.34.18l-.17.13-.17.14a2.65,2.65,0,0,0-.29.29l-.06.06-.08,0a34,34,0,0,0-10.83-4c-.19,0-.79-.07-1-.1a15.08,15.08,0,0,1,5.79-9.56l.85.39a22.84,22.84,0,0,0,8,2.43h.1a52.4,52.4,0,0,1,5.42-.46l-3.77,3.87.19.32a3,3,0,0,0,2.73,1.41,7.89,7.89,0,0,0,2.9-.67l.07,0s1.48-1,3.49-2.4l.56-.38a2.72,2.72,0,0,1,3.39-.1c.08.06,8.32,6.53,11.31,9l1.12.9A1.6,1.6,0,0,1,92.77,187Z" transform="translate(-49.49 -157)"/><path class="cls-2" d="M93.29,183.87l-.87-.7c-3-2.5-11.24-9-11.3-9a3.72,3.72,0,0,0-4.55.05l-.56.38.27.4-.27-.4c-1.84,1.25-3.23,2.21-3.47,2.38s-3,1.25-4.14-.08l3.92-4.13,1-1s3.42-3.58,10.35-.48a18.16,18.16,0,0,0,15.21.33c.38-.17,1.29-.62,1.67-.82a15,15,0,0,1,5.47,8.94C97.06,182.19,94.06,183.4,93.29,183.87Z" transform="translate(-49.49 -157)"/></svg>