<svg id="Camada_1" data-name="Camada 1" xmlns="http://www.w3.org/2000/svg" viewBox="0 0 616.55 212.5"><defs><style>.cls-1{fill:#202020;}</style></defs><path class="cls-1" d="M88.84,348.54c0,17.6.06,35.2-.06,52.8,0,2.66.74,3.38,3.36,3.32,7.47-.17,15-.19,22.43,0,3,.08,3.93-.68,3.92-3.83q-.18-50.46,0-100.93c0-11.94,5.14-21.37,16-26.93s21.17-4.12,30.93,2.68a29.6,29.6,0,0,1,10.24,34.83c-5.29,12.77-18.36,20.55-31.27,18.41-1.67-.28-2.16.22-2.67,1.51q-4.52,11.49-9.1,23c-.74,1.86-.29,2.72,1.8,3.22a57.56,57.56,0,0,0,20.29,1.06c35.84-4.2,67.5-45.41,44-86.88-13.2-23.29-39.62-35-64.94-28.31-26.05,6.86-44.93,30.75-45,56.93Q88.82,324,88.84,348.54Z" transform="translate(-88.78 -192.18)"/><path class="cls-1" d="M264.77,240.71c1.46,2.36,2.49,4.06,3.55,5.74q16,25.28,32,50.52a4.1,4.1,0,0,1,0,5.1q-15.51,24.18-30.81,48.48c-1.32,2.09-4.22,4.46-3.2,6.4.86,1.65,4.54.42,7,.62,2.2.18,4-.1,5.39-2.34,8.26-13.34,16.68-26.58,25-39.87,1.26-2,2.45-4.05,3.89-6.44,1.36,2.19,2.29,4,3.5,5.55,1.51,2,1.36,3.44,0,5.58-7.55,11.56-14.86,23.28-22.31,34.9-1.26,2-1,2.72,1.39,2.63a52.56,52.56,0,0,1,6,0c2.17.17,3.4-.71,4.54-2.57,5.28-8.64,10.82-17.13,16.07-25.8,1.62-2.68,2.3-2.38,3.82.06,5.33,8.62,10.93,17.07,16.28,25.68a4.89,4.89,0,0,0,4.77,2.73c9.37-.13,18.75,0,28.12-.06.95,0,2.27.53,2.77-.5s-.68-1.76-1.19-2.56q-16.83-26.71-33.75-53.39c-1.15-1.82-1.32-3.11-.06-5.05,8.54-13.17,16.92-26.44,25.34-39.69,3.2-5,6.35-10.09,9.84-15.63-3.6,0-6.6.09-9.58,0a3.74,3.74,0,0,0-3.7,2.15c-5.61,9-11.33,17.86-17,26.78L330.1,289.08c-1.47-2.34-2.61-4.36-4-6.24-1.11-1.54-.81-2.69.18-4.19,5.5-8.37,10.89-16.81,16.31-25.23,2.57-4,5.11-8,8-12.56-3.62,0-6.59.12-9.55,0a3.93,3.93,0,0,0-4,2.26c-5.38,8.84-11,17.56-16.29,26.43-1.55,2.57-2.19,2.25-3.6-.07-5.34-8.75-10.83-17.4-16.31-26.06-.73-1.14-1.13-2.7-3.05-2.69C287.07,240.73,276.27,240.71,264.77,240.71Z" transform="translate(-88.78 -192.18)"/><path class="cls-1" d="M394.29,248.44V199c0-6.13,0-5.92-6.17-6.22-3.4-.16-4.34.79-4.32,4.22.12,33.2.07,66.39.07,99.58a64.65,64.65,0,0,0,2.63,18.75c8.13,27.18,35.6,45.55,63.35,42.29,34.8-4.08,57.21-39.18,50.35-70.09-6.68-30.1-36-51-66.42-46.57-6.9,1-6.9,1-4.24,7.53a2,2,0,0,1,.13.31c.43,2.87,2,3.23,4.66,2.62a46.13,46.13,0,0,1,31.54,3.83c16.89,8.49,30.06,29.1,25.67,52-4.24,22.06-25.2,39.82-47.66,40.05-26.21.28-49.42-22.44-49.58-48.66C394.2,281.86,394.29,265.15,394.29,248.44Z" transform="translate(-88.78 -192.18)"/><path class="cls-1" d="M219.54,299c0,18.48,0,37-.06,55.45,0,2.46.6,3.29,3.16,3.24,7.69-.15,15.39-.1,23.09,0,2.18,0,3.16-.46,3.15-2.95q-.1-55.62,0-111.24c0-2.16-.6-2.89-2.84-2.85-7.81.13-15.62.16-23.43,0-2.63-.06-3.12.87-3.1,3.25C219.58,262.28,219.54,280.65,219.54,299Z" transform="translate(-88.78 -192.18)"/><path class="cls-1" d="M581.29,294l.7,1c4,0,7.93,0,11.89,0a4.16,4.16,0,0,0,3.16-1.55c7.41-7.42,14.78-14.86,22.27-22.19,1.58-1.54,1.72-2.68.51-4.53-13.6-20.76-40.82-32.24-65.39-25-29,8.54-47.42,38.69-42.21,66.19,4.91,26,29.26,53.58,67.21,48.22,24.74-3.49,46.05-25.69,49.09-50.32.87-7,.87-6.95-6.32-7-2.41,0-3.38.5-3.59,3.26-2.45,32.75-38.55,56.56-70.58,40.07-28-14.44-35.91-49.08-16.42-73.45,20.53-25.69,54.9-23.2,73.92-3.86,1.86,1.89,2.83,3.27.23,5.59-4.41,3.91-8.38,8.31-12.62,12.41C589.25,286.63,585.24,290.26,581.29,294Z" transform="translate(-88.78 -192.18)"/><path class="cls-1" d="M412.92,248.74q0-26.24,0-52.47c0-1.1.18-2.87-.37-3.17-2.55-1.41-5.47-.88-8.16-.47-1.71.26-1,2.23-1,3.46,0,32.41,0,64.83,0,97.25a61.16,61.16,0,0,0,1.92,15.49c6,23.13,32.27,35.51,53.53,25.47,26.5-12.51,29.79-46.72,10.62-63.92-9.22-8.27-19.9-12.48-32.57-10.05-1.89.36-2.46.88-1.76,2.85,2.06,5.79,2,5.82,8,5.67.11,0,.22,0,.33,0,12.29.42,21.33,6.27,26.63,17.13s3.68,21.44-3.5,31.07c-7.53,10.1-20.93,14.06-33.27,10-11.53-3.76-20.31-15.77-20.33-27.87Q412.9,274,412.92,248.74Z" transform="translate(-88.78 -192.18)"/><path class="cls-1" d="M553.62,293.53l1,1.42c4.1,0,8.19,0,12.29,0a3.18,3.18,0,0,0,2.32-1.11q12-12,24.15-24c1.28-1.26.94-1.85-.33-2.75-5.17-3.63-10.71-6.46-17-7.37-24.32-3.52-45.09,14.74-44.94,39.36.13,20.73,17,36,34.24,38,21.85,2.49,40.42-13.11,43.28-31.28,1.13-7.19,1.26-7.11-5.85-6.85-1.93.06-2.59.63-2.84,2.65C598.5,313.28,592,321.47,581.27,326c-14.62,6.16-32.26-1.23-38.55-15.83-6.43-14.92.21-32.61,14.95-39.14,6.51-2.88,13.35-4,21.14-1.08Z" transform="translate(-88.78 -192.18)"/><path class="cls-1" d="M648.1,249.23V199.79c0-6.29,0-6.09-6.35-6.37-3.48-.15-4.21,1-4.2,4.34.12,33.85,0,67.7.09,101.55a50.7,50.7,0,0,0,2.8,17c9,25.24,31.31,40.77,58.36,40.76,6.21,0,6.06,0,6.17-6.17,0-2.68-1-3.15-3.31-3a54.53,54.53,0,0,1-14.32-.83c-23.43-5.21-39.16-24.75-39.23-48.72C648.06,282,648.1,265.6,648.1,249.23Z" transform="translate(-88.78 -192.18)"/><path class="cls-1" d="M681.25,259.16v0c-6.69,0-13.38.11-20.07-.05-2.46-.06-3.23.57-3.2,3.15q.19,17.87,0,35.73a39.52,39.52,0,0,0,9.17,26.19c8.76,10.66,20.15,15.22,33.93,14.44,3-.17,4.09-.78,3.89-3.92-.34-5.1,1-5.19-5.33-5.17-.67,0-1.34,0-2,0-18.14-.25-30.84-13-30.89-31,0-8.9.09-17.81-.06-26.71-.05-2.67.53-3.74,3.45-3.68,9.36.16,18.73.13,28.1,0,7.15-.07,6,1.25,6.23-6.12.1-2.5-1-3-3.14-2.92C694.64,259.23,687.94,259.16,681.25,259.16Z" transform="translate(-88.78 -192.18)"/><path class="cls-1" d="M658.06,221.48h0v23.71c0,4.81,0,4.81,4.66,4.8,12.15,0,24.31,0,36.47,0,6.39,0,6,1.14,6.15-6,0-2.7-.65-3.69-3.53-3.64-9.92.17-19.85.06-29.77.06-4.58,0-4.58,0-4.58-4.41q0-18.37,0-36.74c0-5.75,0-5.59-5.89-5.76-2.89-.08-3.58,1-3.53,3.64C658.15,205.23,658.06,213.35,658.06,221.48Z" transform="translate(-88.78 -192.18)"/><path class="cls-1" d="M248.8,216a14.63,14.63,0,1,0-14.56,14.75A14.71,14.71,0,0,0,248.8,216Z" transform="translate(-88.78 -192.18)"/></svg>