<svg id="Livello_2" data-name="Livello 2" xmlns="http://www.w3.org/2000/svg" viewBox="0 0 401.83 104.83"><defs><style>.cls-1{fill:#202020;}</style></defs><rect class="cls-1" y="0.08" width="130" height="23.67"/><rect class="cls-1" y="40.75" width="52.33" height="23.67"/><rect class="cls-1" y="81.08" width="52.33" height="23.67"/><rect class="cls-1" x="77.67" y="40.75" width="52.33" height="23.67"/><rect class="cls-1" x="77.67" y="81.08" width="52.33" height="23.67"/><polyline class="cls-1" points="155 0.08 239 0.08 239 23.75 207 23.75 207 104.75 186.67 104.75 186.67 23.75 155 23.75"/><rect class="cls-1" x="249.33" y="0.08" width="23" height="104.67"/><polygon class="cls-1" points="297.17 0 322.83 0 349.5 64.33 376.17 0.17 401.83 0.17 401.83 104.83 382.83 104.67 382.83 31.54 359.11 88.78 339.89 88.78 316.17 30.67 316.17 104.67 297.17 104.67 297.17 0"/></svg>